<svg width="510" height="175" viewBox="0 0 510 175" fill="none" xmlns="http://www.w3.org/2000/svg">
<path d="M192.755 115.619C196.677 117.564 201.373 118.536 206.841 118.536C212.586 118.536 217.53 117.453 221.673 115.286C225.816 113.119 229.076 110.23 231.451 106.618C233.826 103.007 235.29 99.0345 235.843 94.7008H223.994C223.331 98.7567 221.425 101.924 218.276 104.202C215.183 106.424 211.371 107.535 206.841 107.535C203.748 107.535 201.013 107.007 198.638 105.952C196.318 104.896 194.357 103.424 192.755 101.535C191.153 99.5901 189.938 97.3399 189.109 94.7842C188.336 92.2284 187.949 89.4504 187.949 86.4501C187.949 83.3388 188.336 80.5052 189.109 77.9494C189.938 75.3937 191.125 73.1713 192.672 71.2822C194.219 69.3932 196.152 67.9486 198.472 66.9485C200.793 65.8929 203.444 65.3651 206.427 65.3651C209.355 65.3651 211.979 65.8651 214.299 66.8652C216.619 67.8097 218.525 69.2543 220.016 71.1989C221.563 73.0879 222.557 75.4214 222.999 78.1995H234.848C234.351 73.4213 232.887 69.2543 230.457 65.6984C228.026 62.087 224.767 59.309 220.679 57.3644C216.647 55.3642 211.896 54.3641 206.427 54.3641C201.179 54.3641 196.622 55.2809 192.755 57.1144C188.943 58.8923 185.795 61.2814 183.309 64.2816C180.823 67.2819 178.973 70.6155 177.757 74.2825C176.597 77.9494 176.017 81.672 176.017 85.4501V87.2835C176.017 90.6727 176.597 94.2008 177.757 97.8678C178.917 101.535 180.713 104.924 183.143 108.035C185.629 111.147 188.833 113.675 192.755 115.619Z" fill="black"/>
<path fill-rule="evenodd" clip-rule="evenodd" d="M266.57 111.452C267.139 110.481 267.609 109.41 267.978 108.238V116.953H277.093V88.867C277.093 84.6444 276.292 81.2275 274.69 78.6162C273.143 76.0048 270.823 74.088 267.73 72.8657C264.692 71.6434 260.852 71.0322 256.212 71.0322C254.721 71.0322 253.119 71.06 251.406 71.1155C249.749 71.1155 248.119 71.1711 246.517 71.2822C244.915 71.3933 243.479 71.5045 242.209 71.6156V81.4497C243.755 81.3386 245.496 81.2553 247.429 81.1997C249.418 81.0886 251.379 81.0052 253.312 80.9497C255.245 80.8941 256.903 80.8663 258.284 80.8663C260.935 80.8663 262.896 81.5053 264.167 82.7832C265.437 84.0611 266.073 86.0057 266.073 88.617V89.0337H256.875C252.898 89.0337 249.418 89.5615 246.435 90.6172C243.507 91.6728 241.214 93.2563 239.557 95.3676C237.955 97.4788 237.154 100.201 237.154 103.535C237.154 106.591 237.817 109.202 239.143 111.369C240.524 113.536 242.43 115.203 244.86 116.369C247.346 117.536 250.219 118.119 253.478 118.119C256.626 118.119 259.278 117.564 261.432 116.453C263.642 115.286 265.354 113.619 266.57 111.452ZM264.498 106.035C265.437 104.591 265.962 102.646 266.073 100.201V95.9509H256.709C254.058 95.9509 252.014 96.6177 250.578 97.9511C249.197 99.229 248.506 100.896 248.506 102.952C248.506 105.007 249.197 106.674 250.578 107.952C252.014 109.23 254.058 109.869 256.709 109.869C258.311 109.869 259.775 109.591 261.101 109.035C262.482 108.424 263.614 107.424 264.498 106.035Z" fill="black"/>
<path d="M305.257 118.536C301.335 118.536 297.937 117.869 295.065 116.536C292.248 115.203 289.872 113.425 287.939 111.202C286.061 108.98 284.652 106.48 283.713 103.702C282.774 100.924 282.304 98.09 282.304 95.2009V93.6174C282.304 90.5616 282.774 87.6447 283.713 84.8667C284.707 82.0331 286.171 79.5329 288.105 77.3661C290.038 75.1436 292.413 73.3935 295.231 72.1156C298.103 70.7822 301.418 70.1154 305.174 70.1154C309.096 70.1154 312.604 70.8933 315.697 72.449C318.791 73.9491 321.249 76.0604 323.072 78.7828C324.95 81.5053 326 84.6722 326.221 88.2836H315.034C314.758 85.9501 313.764 84.0055 312.051 82.4498C310.394 80.8941 308.102 80.1163 305.174 80.1163C302.633 80.1163 300.506 80.7274 298.794 81.9498C297.136 83.1721 295.893 84.8667 295.065 87.0335C294.236 89.1448 293.822 91.5895 293.822 94.3675C293.822 97.0344 294.209 99.4512 294.982 101.618C295.811 103.785 297.053 105.48 298.711 106.702C300.423 107.924 302.605 108.535 305.257 108.535C307.245 108.535 308.958 108.174 310.394 107.452C311.83 106.73 312.963 105.73 313.791 104.452C314.675 103.174 315.228 101.729 315.449 100.118H326.635C326.414 103.785 325.337 107.007 323.403 109.785C321.525 112.508 319.012 114.647 315.863 116.203C312.769 117.758 309.234 118.536 305.257 118.536Z" fill="black"/>
<path d="M340.999 115.953C343.706 117.008 347.131 117.536 351.274 117.536H357.737V107.619H350.694C348.484 107.619 346.771 107.035 345.556 105.868C344.396 104.646 343.816 102.924 343.816 100.701L343.857 80.1996H357.737V71.6989H343.874L343.899 58.9478H333.127L333.101 71.6989H325.918V80.1996H333.084L333.044 99.9513C333.044 104.341 333.707 107.841 335.033 110.452C336.359 113.008 338.347 114.841 340.999 115.953Z" fill="black"/>
<path d="M378.59 118.369C373.397 118.369 369.365 116.647 366.492 113.202C363.675 109.758 362.266 104.646 362.266 97.8678V71.6156H373.784V98.8678C373.784 101.646 374.557 103.868 376.104 105.535C377.651 107.146 379.75 107.952 382.401 107.952C385.053 107.952 387.207 107.091 388.865 105.368C390.577 103.646 391.433 101.313 391.433 98.3678V71.6156H402.951V116.953H393.836V106.414C393.604 107.373 393.328 108.275 393.008 109.119C391.848 112.175 390.107 114.48 387.787 116.036C385.467 117.592 382.567 118.369 379.087 118.369H378.59Z" fill="black"/>
<path d="M413.778 114.452C417.314 117.064 422.175 118.369 428.362 118.369C432.339 118.369 435.792 117.758 438.72 116.536C441.647 115.314 443.912 113.619 445.514 111.452C447.171 109.23 448 106.618 448 103.618C448 99.5623 446.481 96.3399 443.443 93.9508C440.46 91.5617 436.317 90.0893 431.014 89.5337L427.036 89.117C424.606 88.8392 422.838 88.3114 421.733 87.5336C420.684 86.7557 420.159 85.6445 420.159 84.2C420.159 82.6998 420.822 81.4775 422.147 80.533C423.473 79.5885 425.351 79.1162 427.782 79.1162C430.489 79.1162 432.56 79.6718 433.997 80.783C435.433 81.8942 436.206 83.2277 436.317 84.7833H446.674C446.509 80.0607 444.713 76.4771 441.288 74.0324C437.863 71.5878 433.389 70.3655 427.865 70.3655C424.329 70.3655 421.181 70.9211 418.419 72.0323C415.712 73.0879 413.585 74.6714 412.038 76.7827C410.492 78.894 409.718 81.5053 409.718 84.6167C409.718 88.5059 411.072 91.6172 413.778 93.9508C416.485 96.2843 420.352 97.7289 425.379 98.2845L429.356 98.7012C432.339 98.979 434.438 99.5623 435.654 100.451C436.924 101.34 437.56 102.535 437.56 104.035C437.56 105.757 436.731 107.119 435.074 108.119C433.472 109.119 431.29 109.619 428.528 109.619C425.213 109.619 422.783 108.98 421.236 107.702C419.689 106.424 418.833 105.007 418.667 103.452H408.31C408.475 108.119 410.298 111.786 413.778 114.452Z" fill="black"/>
<path fill-rule="evenodd" clip-rule="evenodd" d="M110.712 38C83.257 38 61 60.3858 61 88C61 115.614 83.257 138 110.712 138C138.168 138 160.425 115.614 160.425 88C160.425 60.3858 138.168 38 110.712 38ZM72.1472 88C72.1472 66.5778 89.4134 49.2117 110.712 49.2117C132.011 49.2117 149.278 66.5778 149.278 88C149.278 107.55 134.897 123.723 116.194 126.399V117.843L126.093 114.168C131.813 112.044 135.613 106.56 135.613 100.427V83.5808C135.613 80.4847 133.117 77.9749 130.039 77.9749C126.961 77.9749 124.465 80.4847 124.465 83.5808V100.427C124.465 101.866 123.574 103.152 122.232 103.65L116.194 105.892V61.5194C116.194 58.4234 113.699 55.9136 110.621 55.9136C107.543 55.9136 105.047 58.4234 105.047 61.5194V85.5722L99.1895 83.3973C97.8476 82.8991 96.9565 81.6128 96.9565 80.1741V72.9119C96.9565 69.8159 94.4611 67.3061 91.3829 67.3061C88.3047 67.3061 85.8093 69.8159 85.8093 72.9119V80.1741C85.8093 86.3074 89.6085 91.7912 95.3291 93.9152L105.047 97.5235V126.373C86.434 123.617 72.1472 107.486 72.1472 88Z" fill="black"/>
</svg>
