<svg width="510" height="175" viewBox="0 0 510 175" fill="none" xmlns="http://www.w3.org/2000/svg">
<path d="M204.933 122.315C198.842 122.315 193.612 121.25 189.243 119.121C184.874 116.992 181.306 114.224 178.537 110.818C175.829 107.411 173.83 103.7 172.538 99.6851C171.245 95.6701 170.599 91.8073 170.599 88.0965V86.089C170.599 81.9523 171.245 77.8765 172.538 73.8616C173.891 69.8466 175.953 66.1966 178.721 62.9116C181.49 59.6267 184.998 57.0108 189.243 55.0642C193.55 53.0567 198.627 52.053 204.472 52.053C210.564 52.053 215.855 53.1479 220.347 55.3379C224.9 57.4671 228.53 60.5087 231.238 64.4629C233.945 68.3562 235.576 72.9186 236.129 78.1503H222.931C222.439 75.1086 221.331 72.5536 219.608 70.4853C217.947 68.3562 215.824 66.7745 213.24 65.7404C210.656 64.6454 207.733 64.0979 204.472 64.0979C201.149 64.0979 198.196 64.6758 195.612 65.8316C193.027 66.9266 190.874 68.5083 189.151 70.5766C187.428 72.6449 186.105 75.0782 185.182 77.8765C184.321 80.6748 183.89 83.7773 183.89 87.184C183.89 90.4689 184.321 93.5106 185.182 96.3089C186.105 99.1072 187.459 101.571 189.243 103.7C191.028 105.768 193.212 107.38 195.796 108.536C198.442 109.692 201.488 110.27 204.933 110.27C209.979 110.27 214.225 109.053 217.67 106.62C221.178 104.126 223.3 100.658 224.039 96.2176H237.237C236.622 100.963 234.991 105.312 232.345 109.266C229.7 113.22 226.069 116.384 221.454 118.756C216.84 121.129 211.333 122.315 204.933 122.315Z" fill="black"/>
<path d="M242.667 120.581V52.053H255.496V79.4502C256.778 76.3282 258.593 73.9178 260.941 72.2191C263.525 70.3941 266.787 69.4816 270.725 69.4816H271.278C277.001 69.4816 281.339 71.4282 284.292 75.3215C287.245 79.2148 288.722 84.8723 288.722 92.2939V120.581H275.893V91.1077C275.893 87.9444 274.97 85.4502 273.124 83.6252C271.34 81.8002 268.971 80.8877 266.017 80.8877C262.879 80.8877 260.326 81.9219 258.357 83.9902C256.449 85.9977 255.496 88.6439 255.496 91.9289V120.581H242.667Z" fill="black"/>
<path fill-rule="evenodd" clip-rule="evenodd" d="M328.265 111.039V120.581H338.418V89.8302C338.418 85.2069 337.526 81.4657 335.741 78.6065C334.018 75.7474 331.434 73.6486 327.988 72.3103C324.604 70.972 320.328 70.3028 315.159 70.3028C313.498 70.3028 311.714 70.3332 309.806 70.3941C307.96 70.3941 306.145 70.4549 304.361 70.5766C302.576 70.6982 300.976 70.8199 299.561 70.9416V81.709C301.284 81.5873 303.222 81.4961 305.376 81.4352C307.591 81.3136 309.775 81.2223 311.929 81.1615C314.082 81.1007 315.928 81.0703 317.467 81.0703C320.42 81.0703 322.604 81.7698 324.02 83.169C325.435 84.5681 326.142 86.6973 326.142 89.5564V90.0127H315.898C311.467 90.0127 307.591 90.5906 304.268 91.7464C301.007 92.9023 298.454 94.636 296.608 96.9476C294.823 99.2593 293.931 102.24 293.931 105.89C293.931 109.236 294.67 112.095 296.146 114.468C297.685 116.84 299.807 118.665 302.515 119.942C305.284 121.22 308.483 121.859 312.113 121.859C315.621 121.859 318.574 121.25 320.974 120.034C323.435 118.756 325.343 116.931 326.696 114.559C327.33 113.496 327.853 112.322 328.265 111.039ZM326.142 102.24V97.5864H315.713C312.76 97.5864 310.483 98.3164 308.883 99.7764C307.345 101.176 306.576 103.001 306.576 105.251C306.576 107.502 307.345 109.327 308.883 110.726C310.483 112.125 312.76 112.825 315.713 112.825C317.497 112.825 319.128 112.521 320.605 111.913C322.143 111.243 323.404 110.148 324.389 108.628C325.435 107.046 326.019 104.917 326.142 102.24Z" fill="black"/>
<path d="M349.945 120.581V70.3028H362.774V120.581H349.945Z" fill="black"/>
<path d="M372.944 70.3028V120.581H385.773V91.4727C385.773 88.2485 386.727 85.6936 388.635 83.8077C390.604 81.8611 393.157 80.8877 396.295 80.8877C399.372 80.8877 401.771 81.8307 403.494 83.7165C405.279 85.6023 406.171 88.066 406.171 91.1077V120.581H419V92.2027C419 84.6594 417.462 79.0019 414.385 75.2303C411.309 71.3978 406.786 69.4816 400.818 69.4816H400.264C396.264 69.4816 392.911 70.3332 390.204 72.0366C387.558 73.7399 385.558 76.2949 384.204 79.7015C383.763 80.7916 383.394 81.972 383.097 83.2429V70.3028H372.944Z" fill="black"/>
<path d="M90 99.5984C90 104.051 93.6515 107.662 98.1558 107.662C102.66 107.662 106.312 104.051 106.312 99.5984C106.312 96.3339 101.524 93.2629 101.524 87.5034C101.524 82.3199 106.312 78.6729 106.312 75.4085C106.312 70.9561 102.66 67.3452 98.1558 67.3452C93.6515 67.3452 90 70.9561 90 75.4085C90 78.6729 94.7876 82.3199 94.7876 87.5034C94.7876 92.687 90 96.3339 90 99.5984Z" fill="black"/>
<path d="M129.613 50.0633C129.613 45.6109 133.264 42 137.769 42C142.273 42 145.924 45.6109 145.924 50.0633C145.924 51.4654 145.041 52.8318 144.033 54.3909C142.695 56.4617 141.137 58.8725 141.137 62.1583C141.137 65.0483 142.625 67.4607 143.942 69.5955C144.987 71.2896 145.924 72.8088 145.924 74.2532C145.924 74.4468 145.917 74.6389 145.904 74.8291C145.917 75.0193 145.924 75.2113 145.924 75.4049C145.924 76.807 145.041 78.1734 144.033 79.7325C142.695 81.8034 141.137 84.2141 141.137 87.4999C141.137 90.3899 142.625 92.8023 143.942 94.9371C144.987 96.6312 145.924 98.1505 145.924 99.5949C145.924 99.7885 145.917 99.9805 145.904 100.171C145.917 100.361 145.924 100.553 145.924 100.747C145.924 102.191 144.987 103.71 143.942 105.405C142.625 107.539 141.137 109.952 141.137 112.842C141.137 116.128 142.695 118.538 144.033 120.609C145.041 122.168 145.924 123.535 145.924 124.937C145.924 129.389 142.273 133 137.769 133C133.264 133 129.613 129.389 129.613 124.937C129.613 123.492 130.55 121.973 131.595 120.279C132.912 118.144 134.4 115.732 134.4 112.842C134.4 109.952 132.912 107.539 131.595 105.405C130.55 103.71 129.613 102.191 129.613 100.747C129.613 100.553 129.62 100.361 129.633 100.171C129.62 99.9806 129.613 99.7885 129.613 99.5949C129.613 98.1505 130.55 96.6312 131.595 94.9371C132.912 92.8023 134.4 90.3899 134.4 87.4999C134.4 84.6098 132.912 82.1974 131.595 80.0627C130.55 78.3686 129.613 76.8493 129.613 75.4049C129.613 75.2113 129.62 75.0193 129.633 74.8291C129.62 74.6389 129.613 74.4469 129.613 74.2532C129.613 72.8088 130.55 71.2896 131.595 69.5955C132.912 67.4607 134.4 65.0483 134.4 62.1583C134.4 59.2682 132.912 56.8558 131.595 54.7211C130.55 53.027 129.613 51.5077 129.613 50.0633Z" fill="black"/>
<path d="M117.961 120.331C113.457 120.331 109.806 116.72 109.806 112.268C109.806 110.823 110.743 109.304 111.788 107.61C113.105 105.475 114.593 103.063 114.593 100.173C114.593 97.2827 113.105 94.8703 111.788 92.7355C110.743 91.0414 109.806 89.5221 109.806 88.0777C109.806 87.8841 109.813 87.6921 109.826 87.5019C109.813 87.3116 109.806 87.1195 109.806 86.9258C109.806 85.4815 110.743 83.9622 111.788 82.2681C113.105 80.1333 114.593 77.7209 114.593 74.8309C114.593 71.9408 113.105 69.5284 111.788 67.3937C110.743 65.6996 109.806 64.1803 109.806 62.7359C109.806 58.2836 113.457 54.6726 117.961 54.6726C122.466 54.6726 126.117 58.2836 126.117 62.7359C126.117 64.138 125.234 65.5044 124.226 67.0635C122.888 69.1344 121.33 71.5451 121.33 74.8309C121.33 77.7209 122.818 80.1333 124.135 82.2681C125.18 83.9622 126.117 85.4815 126.117 86.9258C126.117 87.1195 126.11 87.3115 126.097 87.5017C126.11 87.692 126.117 87.8841 126.117 88.0778C126.117 89.5221 125.18 91.0414 124.135 92.7355C122.818 94.8703 121.33 97.2827 121.33 100.173C121.33 103.458 122.888 105.869 124.226 107.94C125.234 109.499 126.117 110.866 126.117 112.268C126.117 116.72 122.466 120.331 117.961 120.331Z" fill="black"/>
</svg>
