<?xml version="1.0" encoding="utf-8"?>
<!-- Generator: Adobe Illustrator 25.0.1, SVG Export Plug-In . SVG Version: 6.00 Build 0)  -->
<svg version="1.1" id="Layer_1" xmlns="http://www.w3.org/2000/svg" xmlns:xlink="http://www.w3.org/1999/xlink" x="0px" y="0px"
	 viewBox="0 0 510 175" style="enable-background:new 0 0 510 175;" xml:space="preserve">
<path d="M122.6,39L74,97.3h43.7l-4.9,38.8l48.6-58.3h-43.7L122.6,39z"/>
<path d="M230.1,79.6v18h-25.9v24.6h-20.4v-73h51.7v18h-31.4v12.4H230.1z"/>
<path d="M264,49.2v73h-18.7v-73H264z"/>
<path d="M294.9,65c2.9,0,5.7,0.7,8.5,2c2.8,1.2,5.2,2.8,7,4.8v-5.1h18.7v55.6h-18.7v-9.3c-1.4,3.1-3.5,5.6-6.3,7.7
	c-2.8,2.1-6.2,3.2-10.2,3.2c-4.1,0-8-1.1-11.7-3.2c-3.6-2.1-6.6-5.3-8.9-9.7c-2.3-4.4-3.4-10-3.4-16.7c0-6.2,1.1-11.5,3.4-15.9
	c2.3-4.4,5.4-7.7,9.1-9.9C286.2,66.2,290.4,65,294.9,65z M298.8,83.3c-2.7,0-4.9,1.1-6.8,3.3c-1.7,2.2-2.6,4.8-2.6,7.7
	c0,3,0.9,5.5,2.7,7.5c1.8,2,4.2,3.1,7.2,3.1c1.6,0,3.2-0.4,4.9-1.2c1.7-0.9,3.1-2.1,4.2-3.8c1.2-1.7,1.9-4,1.9-6.6v-5.3
	c-1.6-1.3-3.4-2.4-5.4-3.3C303,83.8,300.9,83.3,298.8,83.3z"/>
<path d="M358.2,65c3.6,0,7,0.5,10,1.6c3.1,1,5.6,2.4,7.5,4.2v14.7c-1.9-1.2-4-2.3-6.4-3.3c-2.4-1.1-5-1.6-7.7-1.6
	c-1.7,0-3.3,0.4-4.7,1.1c-1.3,0.7-2,1.7-2,3.2c0,1,0.4,1.8,1.2,2.3c0.8,0.5,2.4,1.1,4.7,1.6l3.4,0.9c9.7,2.5,14.5,7.7,14.5,15.6
	c0,3.6-1.1,6.9-3.3,9.7c-2.1,2.8-4.9,4.9-8.4,6.5c-3.4,1.5-7.1,2.3-11.1,2.3c-4.1,0-8-0.6-11.5-1.7c-3.6-1.2-6.6-2.7-9.2-4.5V103
	c2.6,1.6,5.6,2.9,8.8,4c3.3,1.1,6.3,1.6,8.9,1.6c2.1,0,3.6-0.3,4.6-0.8c1-0.5,1.5-1.4,1.5-2.7c0-1-0.6-1.8-1.7-2.3
	c-1.2-0.6-2.8-1.2-5-2l-5.6-1.7c-4.1-1.2-7-3.2-8.9-5.8c-1.9-2.7-2.8-6-2.8-9.8c0-3.8,1-7.2,3-9.9c2-2.8,4.8-4.9,8.3-6.4
	C349.9,65.8,353.8,65,358.2,65z"/>
<path d="M417.3,65c5.7,0,10.3,1.9,13.8,5.8c3.6,3.8,5.4,9.6,5.4,17.1v34.3h-18.7l-0.1-31.4c0-2.8-0.8-4.7-2.3-5.8
	c-1.5-1.2-3.2-1.7-5.1-1.7c-2,0-3.7,0.5-5.1,1.6c-1.4,1-2.6,2.3-3.6,3.7v33.6h-18.7v-73h18.7v24.6c1.7-2.4,3.9-4.5,6.3-6.2
	C410.5,65.9,413.6,65,417.3,65z"/>
</svg>
