<?xml version="1.0" encoding="utf-8"?>
<!-- Generator: Adobe Illustrator 25.0.1, SVG Export Plug-In . SVG Version: 6.00 Build 0)  -->
<svg version="1.1" id="Layer_1" xmlns="http://www.w3.org/2000/svg" xmlns:xlink="http://www.w3.org/1999/xlink" x="0px" y="0px"
	 viewBox="0 0 510 175" style="enable-background:new 0 0 510 175;" xml:space="preserve">
<path d="M220.3,65.1v62.2h-15.1v-25.6h-23.6v25.6h-15.1V65.1h15.1v24.4h23.6V65.1H220.3z"/>
<path d="M235.3,72.7c-2.7,0-4.8-0.8-6.6-2.3c-1.7-1.6-2.5-3.5-2.5-5.8c0-2.4,0.8-4.3,2.5-5.8c1.7-1.6,3.9-2.4,6.6-2.4
	c2.6,0,4.7,0.8,6.4,2.4c1.7,1.5,2.6,3.5,2.6,5.8c0,2.3-0.9,4.3-2.6,5.8C240,71.9,237.9,72.7,235.3,72.7z M242.8,77.8v49.4h-15.1
	V77.8H242.8z"/>
<path d="M277.8,114.4v12.8h-7.7c-5.5,0-9.8-1.3-12.8-4c-3.1-2.7-4.6-7.1-4.6-13.2V90.4h-6V77.8h6v-12h15.1v12h9.9v12.6h-9.9v19.8
	c0,1.5,0.4,2.5,1.1,3.2c0.7,0.6,1.9,1,3.5,1H277.8z"/>
<path d="M329.3,101.8c0,1.4-0.1,2.9-0.3,4.4h-34.3c0.2,3.1,1.2,5.4,2.9,7.1c1.8,1.6,3.9,2.4,6.5,2.4c3.8,0,6.4-1.6,7.9-4.8h16.1
	c-0.8,3.2-2.3,6.2-4.5,8.8c-2.1,2.6-4.8,4.6-8.1,6.1c-3.2,1.5-6.9,2.2-10.9,2.2c-4.8,0-9.2-1-12.9-3.1c-3.8-2.1-6.7-5-8.9-8.9
	c-2.1-3.8-3.2-8.3-3.2-13.5c0-5.1,1-9.6,3.1-13.5c2.1-3.8,5.1-6.8,8.9-8.9c3.8-2.1,8.1-3.1,13-3.1c4.8,0,9,1,12.8,3
	c3.7,2,6.6,4.9,8.7,8.6C328.2,92.5,329.3,96.8,329.3,101.8z M313.8,97.8c0-2.6-0.9-4.7-2.7-6.2c-1.8-1.5-4-2.3-6.6-2.3
	c-2.5,0-4.7,0.7-6.5,2.2c-1.7,1.5-2.8,3.6-3.2,6.3H313.8z"/>
<path d="M330.7,102.6c0-5.1,1-9.6,3.1-13.5c2.1-3.8,5-6.8,8.8-8.9c3.8-2.1,8.1-3.1,12.9-3.1c6.2,0,11.4,1.6,15.5,4.9
	c4.2,3.2,6.9,7.8,8.2,13.7h-16.1c-1.4-3.8-4-5.7-7.9-5.7c-2.8,0-5,1.1-6.6,3.3c-1.7,2.1-2.5,5.2-2.5,9.2c0,4,0.8,7.1,2.5,9.3
	c1.7,2.1,3.9,3.2,6.6,3.2c3.9,0,6.5-1.9,7.9-5.7h16.1c-1.3,5.8-4,10.3-8.2,13.6c-4.2,3.3-9.4,5-15.5,5c-4.8,0-9.2-1-12.9-3.1
	c-3.7-2.1-6.6-5-8.8-8.9C331.8,112.2,330.7,107.7,330.7,102.6z"/>
<path d="M414.2,77.3c5.7,0,10.2,1.9,13.6,5.7c3.4,3.7,5.1,8.9,5.1,15.4v28.9h-15.1v-26.8c0-3.3-0.9-5.9-2.6-7.7
	c-1.7-1.8-4-2.7-6.9-2.7c-2.9,0-5.2,0.9-6.9,2.7c-1.7,1.8-2.6,4.4-2.6,7.7v26.8h-15.1V61.7H399v22.8c1.5-2.2,3.6-3.9,6.3-5.2
	C407.9,78,410.9,77.3,414.2,77.3z"/>
<path d="M88,94.8V41h17.9v27.6c3.1-1.2,6.5-1.9,10.1-1.9c15.5,0,28,12.5,28,28v32.5h-17.9V94.8c0-5.6-4.5-10.1-10.1-10.1
	c-5.6,0-10.1,4.5-10.1,10.1c0,0,0,0,0,0v32.5H88V94.8C88,94.8,88,94.8,88,94.8z"/>
<path d="M126.1,58.9V41H144v17.9H126.1z"/>
</svg>
