<?xml version="1.0" encoding="utf-8"?>
<!-- Generator: Adobe Illustrator 25.0.1, SVG Export Plug-In . SVG Version: 6.00 Build 0)  -->
<svg version="1.1" id="Layer_1" xmlns="http://www.w3.org/2000/svg" xmlns:xlink="http://www.w3.org/1999/xlink" x="0px" y="0px"
	 viewBox="0 0 510 175" style="enable-background:new 0 0 510 175;" xml:space="preserve">
<style type="text/css">
	.st0{fill-rule:evenodd;clip-rule:evenodd;}
</style>
<path class="st0" d="M158.5,84.3c1.9,9,1,17.4-2,24.4l0.2,0c-2.6,7.2-11.3,22.2-31.9,26.5c-0.8,0.2-1.6,0.3-2.3,0.4
	c-2,0.3-4,0.4-6.1,0.4c-24.3,0-48.2-20-53.4-44.7c-2.5-11.8-0.2-22.5,5.4-30.4c2.6-5,16.4-17.3,27.4-19.6c0.3-0.1,0.6-0.1,0.9-0.2
	c2.9-0.7,6.1-1.1,9.3-1.1C129.9,40,153.4,59.8,158.5,84.3z M150.2,82.2c4,19.2-7.9,34.8-26.7,34.8c-18.7,0-37.2-15.6-41.2-34.8
	c-4-19.2,7.9-34.8,26.7-34.8C127.7,47.4,146.2,63,150.2,82.2z M122.4,106.2c13.9,0,22.8-11.2,19.9-25.1
	C139.3,67.2,125.7,56,111.9,56C98,56,89.1,67.2,92,81.1C94.9,95,108.5,106.2,122.4,106.2z M134.7,80.1c1.8,8.7-3.9,15.8-12.8,15.8
	c-8.9,0-17.6-7.1-19.4-15.8c-1.8-8.7,3.9-15.8,12.8-15.8C124.2,64.3,132.9,71.4,134.7,80.1z M126.6,80.1c0.9,4.3-1.9,7.8-6.3,7.8
	s-8.7-3.5-9.6-7.8c-0.9-4.3,1.9-7.8,6.3-7.8C121.4,72.3,125.7,75.8,126.6,80.1z"/>
<path d="M222.9,110c0,0.6,0.4,1,1,1h7.6c0.6,0,1-0.4,1-1V73.5h-8.6c-0.6,0-1,0.4-1,1V110z"/>
<path d="M223.2,67.5c0.9,1,2.3,1.5,4.2,1.5s3.3-0.5,4.1-1.5c0.9-1,1.3-2.3,1.3-3.7c0-1.6-0.4-2.8-1.3-3.8c-0.9-1-2.3-1.5-4.1-1.5
	s-3.3,0.5-4.2,1.5c-0.9,1-1.3,2.2-1.3,3.8C221.9,65.3,222.3,66.5,223.2,67.5z"/>
<path class="st0" d="M207.7,93.5c-2.9,1.4-6.5,2.1-10.8,2.1h-7.6V110c0,0.6-0.4,1-1,1h-7.8c-0.6,0-1-0.4-1-1V61.2c0-0.6,0.4-1,1-1
	h7.8c0.1,0,0.2,0,0.3,0c0.1,0,0.2,0,0.3,0h8c4.2,0,7.8,0.7,10.8,2.1c3,1.4,5.3,3.4,6.8,5.9c1.6,2.5,2.3,5.5,2.3,9v1.1
	c0,3.5-0.8,6.5-2.3,9.1C213,90,210.7,92,207.7,93.5z M202.7,69.9c-1.3-0.8-3-1.2-5-1.2h-8.4V87h8.4c2,0,3.6-0.4,5-1.2
	c1.4-0.8,2.4-1.9,3.1-3.2c0.7-1.4,1.1-3,1.1-4.8c0-1.8-0.4-3.4-1.1-4.8C205.2,71.7,204.1,70.6,202.7,69.9z"/>
<path d="M241.1,111c-0.6,0-1-0.4-1-1V74.5c0-0.6,0.4-1,1-1h5.6c0.6,0,1,0.4,1,1v8.2c0.2-1,0.5-1.9,0.8-2.7c1-2.6,2.5-4.5,4.5-5.8
	c2-1.3,4.5-1.9,7.5-1.9h0.4c4.5,0,7.9,1.5,10.2,4.4c2.3,2.9,3.5,7.1,3.5,12.8V110c0,0.6-0.4,1-1,1h-7.6c-0.6,0-1-0.4-1-1V88.7
	c0-2.3-0.7-4.2-2-5.6c-1.3-1.4-3.1-2.1-5.4-2.1c-2.3,0-4.3,0.7-5.7,2.2c-1.4,1.4-2.1,3.4-2.1,5.8v21c0,0.6-0.4,1-1,1H241.1z"/>
<path class="st0" d="M310.3,93.5c-2.9,1.4-6.5,2.1-10.8,2.1H292V110c0,0.6-0.4,1-1,1h-7.8c-0.6,0-1-0.4-1-1V61.2c0-0.6,0.4-1,1-1
	h7.8c0.1,0,0.2,0,0.3,0c0.1,0,0.2,0,0.3,0h8c4.2,0,7.8,0.7,10.8,2.1c3,1.4,5.3,3.4,6.8,5.9c1.6,2.5,2.3,5.5,2.3,9v1.1
	c0,3.5-0.8,6.5-2.3,9.1C315.6,90,313.3,92,310.3,93.5z M305.4,69.9c-1.3-0.8-3-1.2-5-1.2H292V87h8.4c2,0,3.6-0.4,5-1.2
	c1.4-0.8,2.4-1.9,3.1-3.2c0.7-1.4,1.1-3,1.1-4.8c0-1.8-0.4-3.4-1.1-4.8C307.8,71.7,306.8,70.6,305.4,69.9z"/>
<path class="st0" d="M340.9,112.3c-3.3,0-6.2-0.5-8.8-1.6c-2.5-1.1-4.7-2.5-6.4-4.3c-1.8-1.8-3.1-3.9-4-6.2
	c-0.9-2.3-1.3-4.7-1.3-7.2v-1.5c0-2.6,0.5-5,1.4-7.3c1-2.3,2.3-4.4,4.1-6.2c1.8-1.8,4-3.3,6.5-4.3c2.5-1.1,5.4-1.6,8.6-1.6
	c3.2,0,6,0.5,8.6,1.6c2.5,1,4.7,2.4,6.4,4.3c1.8,1.8,3.2,3.9,4.1,6.2c0.9,2.3,1.4,4.7,1.4,7.3V93c0,2.5-0.5,4.9-1.4,7.2
	c-0.9,2.3-2.2,4.4-3.9,6.2c-1.8,1.8-3.9,3.2-6.4,4.3C347.1,111.8,344.2,112.3,340.9,112.3z M340.9,104.1c2.3,0,4.3-0.5,5.9-1.5
	c1.6-1.1,2.8-2.5,3.7-4.2c0.8-1.8,1.2-3.8,1.2-6.1c0-2.3-0.4-4.3-1.3-6.1c-0.8-1.8-2.1-3.2-3.7-4.2c-1.6-1.1-3.5-1.6-5.8-1.6
	c-2.3,0-4.2,0.5-5.9,1.6c-1.6,1-2.9,2.4-3.7,4.2c-0.9,1.8-1.3,3.8-1.3,6.1c0,2.3,0.4,4.3,1.2,6.1c0.9,1.8,2.1,3.2,3.7,4.2
	C336.6,103.6,338.6,104.1,340.9,104.1z"/>
<path d="M368.1,110c0,0.6,0.4,1,1,1h7.6c0.6,0,1-0.4,1-1V73.5h-8.6c-0.6,0-1,0.4-1,1V110z"/>
<path d="M368.4,67.5c0.9,1,2.3,1.5,4.2,1.5s3.3-0.5,4.1-1.5c0.9-1,1.3-2.3,1.3-3.7c0-1.6-0.4-2.8-1.3-3.8c-0.9-1-2.3-1.5-4.1-1.5
	s-3.3,0.5-4.2,1.5c-0.9,1-1.3,2.2-1.3,3.8C367.1,65.3,367.5,66.5,368.4,67.5z"/>
<path d="M386.3,111c-0.6,0-1-0.4-1-1V74.5c0-0.6,0.4-1,1-1h5.6c0.6,0,1,0.4,1,1v8.2c0.2-1,0.5-1.9,0.8-2.7c1-2.6,2.5-4.5,4.5-5.8
	c2-1.3,4.5-1.9,7.5-1.9h0.4c4.5,0,7.9,1.5,10.2,4.4c2.3,2.9,3.5,7.1,3.5,12.8V110c0,0.6-0.4,1-1,1h-7.6c-0.6,0-1-0.4-1-1V88.7
	c0-2.3-0.7-4.2-2-5.6c-1.3-1.4-3.1-2.1-5.4-2.1c-2.3,0-4.3,0.7-5.7,2.2c-1.4,1.4-2.1,3.4-2.1,5.8v21c0,0.6-0.4,1-1,1H386.3z"/>
<path d="M434.4,110.2c2.3,0.9,5.1,1.3,8.6,1.3h4.4c0.6,0,1-0.4,1-1v-6.2c0-0.6-0.4-1-1-1h-4.9c-1.8,0-3.3-0.5-4.3-1.5
	c-1-1-1.4-2.4-1.4-4.3l0-17h10.6c0.6,0,1-0.4,1-1v-5c0-0.6-0.4-1-1-1h-10.6l0-9.6c0-0.6-0.4-1-1-1h-7c-0.6,0-1,0.4-1,1l0,9.6h-5
	c-0.6,0-1,0.4-1,1v5c0,0.6,0.4,1,1,1h5l0,16.4c0,3.6,0.6,6.5,1.7,8.7C430.5,107.7,432.2,109.2,434.4,110.2z"/>
</svg>
