<?xml version="1.0" encoding="utf-8"?>
<!-- Generator: Adobe Illustrator 25.0.1, SVG Export Plug-In . SVG Version: 6.00 Build 0)  -->
<svg version="1.1" id="Layer_1" xmlns="http://www.w3.org/2000/svg" xmlns:xlink="http://www.w3.org/1999/xlink" x="0px" y="0px"
	 viewBox="0 0 510 175" style="enable-background:new 0 0 510 175;" xml:space="preserve">
<path d="M114.4,138.5H81l33.3-50.4h33.4L114.4,138.5z"/>
<path d="M102.2,36h34.2l-34.2,52.1H68L102.2,36z"/>
<path d="M215.8,79.9c0,3.1-0.7,6-2.2,8.7c-1.4,2.7-3.7,4.9-6.9,6.5c-3.1,1.7-7,2.5-11.8,2.5h-9.7v22.2h-11.6V62h21.3
	c4.5,0,8.3,0.8,11.4,2.3c3.1,1.5,5.5,3.7,7,6.4C215,73.4,215.8,76.4,215.8,79.9z M194.4,88.2c3.2,0,5.6-0.7,7.1-2.2
	c1.5-1.5,2.3-3.6,2.3-6.2c0-5.6-3.1-8.4-9.4-8.4h-9.2v16.8H194.4z"/>
<path d="M232.3,81c1.5-2.4,3.4-4.3,5.8-5.7c2.4-1.4,5.2-2.1,8.3-2.1v12.2h-3.1c-3.6,0-6.4,0.9-8.3,2.6c-1.8,1.7-2.7,4.7-2.7,8.9
	v22.9h-11.6V73.9h11.6V81z"/>
<path d="M271.2,120.5c-4.4,0-8.4-1-11.9-2.9c-3.5-2-6.3-4.8-8.4-8.4c-2-3.6-3-7.7-3-12.4c0-4.7,1-8.8,3.1-12.4
	c2.1-3.6,4.9-6.4,8.5-8.3c3.6-2,7.6-3,12-3c4.4,0,8.4,1,12,3c3.6,1.9,6.4,4.7,8.5,8.3c2.1,3.6,3.1,7.7,3.1,12.4
	c0,4.7-1.1,8.8-3.2,12.4c-2.1,3.6-5,6.4-8.6,8.4C279.7,119.6,275.7,120.5,271.2,120.5z M271.2,110.4c2.1,0,4.1-0.5,5.9-1.5
	c1.9-1,3.4-2.6,4.5-4.6c1.1-2,1.7-4.5,1.7-7.5c0-4.4-1.2-7.7-3.5-10c-2.3-2.4-5.1-3.6-8.4-3.6c-3.3,0-6.1,1.2-8.4,3.6
	c-2.2,2.3-3.3,5.7-3.3,10c0,4.4,1.1,7.7,3.2,10.1C265.2,109.3,267.9,110.4,271.2,110.4z"/>
<path d="M312,110.6h12.5v9.2h-24.1V54.9H312V110.6z"/>
<path d="M333.4,68.4c-2,0-3.8-0.6-5.1-1.9c-1.3-1.3-2-3-2-4.9c0-1.9,0.7-3.5,2-4.8c1.4-1.3,3.1-2,5.1-2c2,0,3.7,0.7,5.1,2
	c1.4,1.3,2.1,2.9,2.1,4.8c0,1.9-0.7,3.6-2.1,4.9C337.1,67.8,335.5,68.4,333.4,68.4z M339.1,73.9v45.9h-11.6V73.9H339.1z"/>
<path d="M372.7,73.2c5.5,0,9.9,1.7,13.3,5.2c3.4,3.4,5.1,8.2,5.1,14.4v26.9h-11.6V94.5c0-3.6-0.9-6.4-2.7-8.4c-1.8-2-4.3-3-7.5-3
	c-3.2,0-5.7,1-7.6,3c-1.8,1.9-2.7,4.7-2.7,8.4v25.3h-11.6V73.9h11.6v5.7c1.5-2,3.5-3.5,5.9-4.6C367.2,73.8,369.8,73.2,372.7,73.2z"
	/>
<path d="M441.4,95.9c0,1.7-0.1,3.1-0.3,4.5h-33.6c0.3,3.3,1.4,5.9,3.5,7.8c2,1.9,4.6,2.8,7.5,2.8c4.3,0,7.4-1.9,9.2-5.6h12.5
	c-1.3,4.4-3.9,8.1-7.6,10.9c-3.8,2.8-8.4,4.2-13.8,4.2c-4.4,0-8.4-1-11.9-2.9c-3.5-2-6.2-4.8-8.2-8.4c-1.9-3.6-2.9-7.7-2.9-12.4
	c0-4.7,1-8.9,2.9-12.5c1.9-3.6,4.6-6.4,8.1-8.3c3.5-1.9,7.5-2.9,12-2.9c4.4,0,8.3,0.9,11.7,2.8c3.5,1.9,6.2,4.6,8,8
	C440.4,87.4,441.4,91.4,441.4,95.9z M429.4,92.5c-0.1-3-1.1-5.4-3.2-7.1c-2.1-1.8-4.7-2.7-7.7-2.7c-2.9,0-5.3,0.9-7.3,2.7
	c-1.9,1.7-3.1,4.1-3.6,7.2H429.4z"/>
</svg>
