<?xml version="1.0" encoding="utf-8"?>
<!-- Generator: Adobe Illustrator 25.0.1, SVG Export Plug-In . SVG Version: 6.00 Build 0)  -->
<svg version="1.1" id="Layer_1" xmlns="http://www.w3.org/2000/svg" xmlns:xlink="http://www.w3.org/1999/xlink" x="0px" y="0px"
	 viewBox="0 0 510 175" style="enable-background:new 0 0 510 175;" xml:space="preserve">
<style type="text/css">
	.st0{fill-rule:evenodd;clip-rule:evenodd;}
</style>
<path d="M284.3,121.4c0,1,0.8,1.8,1.8,1.8l14.8-0.7c0.9,0,1.7-0.8,1.7-1.8V73.8c0-1-0.8-1.8-1.8-1.8L286,72.6
	c-0.9,0-1.7,0.8-1.7,1.8V121.4z"/>
<path d="M286.6,63.2c1.8,1.8,4.1,2.7,6.8,2.7c2.9,0,5.2-0.9,6.9-2.7c1.8-1.9,2.7-4.2,2.7-7c0-2.7-0.9-5-2.7-6.9
	c-1.7-1.9-4.1-2.8-6.9-2.8c-2.7,0-5,0.9-6.8,2.8c-1.8,1.9-2.7,4.2-2.7,6.9C283.9,59,284.8,61.3,286.6,63.2z"/>
<path class="st0" d="M240.1,93.1v25.5c0,0.8-0.6,1.6-1.4,1.7l-15.3,2.9c-1.1,0.2-2.1-0.6-2.1-1.7V50.6c0-1,0.8-1.8,1.8-1.8H253
	c5,0,9.4,0.9,13.2,2.8c3.8,1.9,6.9,4.5,9,7.8c2.2,3.3,3.3,7.1,3.3,11.5s-1.1,8.3-3.4,11.6c-2.2,3.3-5.2,5.9-9.1,7.8
	c-1.7,0.8-3.5,1.4-5.5,1.8l19.9,27.1c1,1.3-0.2,3.1-1.8,2.7l-16.5-4c-0.4-0.1-0.7-0.3-0.9-0.6l-19.8-24.4H240.1z M240.1,79.7h10.3
	c3.1,0,5.4-0.7,7-2.2c1.7-1.5,2.5-3.6,2.5-6.2c0-2.5-0.8-4.5-2.5-6.1c-1.6-1.6-4-2.4-7-2.4h-10.3V79.7z"/>
<path d="M327.5,124.7c-3.1,0-6.3-0.4-9.3-1.3c-3-0.8-5.8-2-8.5-3.4c-2-1.2-3.8-2.4-5.4-3.8c-0.7-0.6-0.7-1.7,0-2.4l7.5-7.7
	c0.7-0.7,1.8-0.7,2.6-0.1c1.4,1.2,2.9,2.1,4.7,2.9c2.4,1,4.9,1.5,7.5,1.5c1.5,0,2.7-0.2,3.5-0.6c0.8-0.4,1.3-1,1.3-1.8
	c0-1.1-0.6-2-1.8-2.5c-1.1-0.6-2.6-1.2-4.5-1.6c-1.8-0.5-3.7-1-5.8-1.7c-2-0.7-4-1.6-5.9-2.7c-1.9-1.1-3.4-2.7-4.6-4.7
	c-1.1-2-1.7-4.6-1.7-7.8c0-3.3,0.9-6.2,2.6-8.6c1.8-2.5,4.3-4.5,7.5-5.9c3.2-1.5,7-2.2,11.3-2.2c4.4,0,8.6,0.8,12.6,2.3
	c3.4,1.2,6.8,3.7,9.2,6.2c0.7,0.7,0.6,1.8-0.2,2.4l-8.7,6.7c-0.7,0.6-1.8,0.4-2.4-0.2c-1.2-1.1-2.3-1.6-3.9-2.2
	c-2-0.8-3.9-1.2-5.6-1.2c-1.6,0-2.8,0.2-3.5,0.7c-0.7,0.4-1,1-1,1.8c0,0.9,0.6,1.6,1.7,2.2c1.2,0.6,2.7,1.1,4.5,1.6
	c1.9,0.4,3.8,1,5.8,1.7c2,0.7,3.9,1.7,5.8,2.9c1.9,1.2,3.4,2.8,4.5,4.8c1.2,2,1.8,4.6,1.8,7.9c0,5.1-2,9.2-5.9,12.2
	C339.4,123.2,334.1,124.7,327.5,124.7z"/>
<path class="st0" d="M362.9,121c4.4,2.2,9.5,3.4,15.2,3.4c4.5,0,8.6-0.7,12.2-2.2c3.1-1.3,5.8-3,8.1-5.3c0.7-0.7,0.6-1.7,0-2.4
	l-7.1-7.1c-0.7-0.7-1.9-0.7-2.6,0c-1.2,1.1-2.5,1.9-3.9,2.5c-1.9,0.8-4.1,1.3-6.6,1.3c-2.7,0-4.9-0.5-6.7-1.6
	c-1.8-1-3.2-2.6-4.2-4.6c-0.2-0.5-0.5-1.1-0.6-1.6l34.6-0.2c0.8,0,1.5-0.5,1.7-1.3c0.2-0.9,0.3-1.6,0.3-2.3c0.1-1.1,0.2-2.2,0.2-3.3
	c0-5-1.2-9.4-3.5-13.2c-2.2-3.9-5.4-7-9.4-9.1c-4-2.2-8.6-3.4-13.7-3.4c-5.3,0-10.1,1.2-14.4,3.6c-4.2,2.3-7.5,5.5-10,9.5
	c-2.4,4-3.7,8.6-3.7,13.7c0,5.2,1.3,9.9,3.8,13.9C355,115.5,358.4,118.7,362.9,121z M366.5,91.7c0.2-0.5,0.4-1,0.6-1.5
	c0.9-2,2.2-3.6,3.9-4.7c1.7-1.1,3.7-1.7,6-1.7c2.2,0,4.1,0.5,5.6,1.5c1.5,1,2.6,2.4,3.4,4.3c0.3,0.6,0.5,1.3,0.6,2L366.5,91.7z"/>
<path d="M131.8,42.6c0-1,0.8-1.9,1.8-2l12.4-1.5c1.2-0.2,2.3,0.8,2.3,2v40.7c0,1.2-1.1,2.2-2.3,2l-12.4-1.5c-1-0.1-1.8-1-1.8-2V42.6
	z"/>
<path d="M107,47.8c0-1,0.8-1.9,1.8-2l12.4-1.5c1.2-0.2,2.3,0.8,2.3,2v32.5c0,1.2-1.1,2.2-2.3,2l-12.4-1.5c-1-0.1-1.8-1-1.8-2V47.8z"
	/>
<path d="M171.5,42.5c0.9,0.2,1.6,1.1,1.6,2v17.2c0,1-0.8,1.9-1.8,2l-12.4,1.5c-1.2,0.2-2.3-0.8-2.3-2V41.4c0-1.3,1.3-2.3,2.6-2
	L171.5,42.5z"/>
<path d="M195.7,49.6c0-0.9-0.6-1.8-1.6-2l-12.4-3.1c-1.3-0.3-2.6,0.7-2.6,2v15.7c0,1.2,1.1,2.2,2.3,2l12.4-1.5c1-0.1,1.8-1,1.8-2
	V49.6z"/>
<path d="M195.7,70.7l-40.2,1c0.6,7.6,6.9,13.4,14.5,13.4h9.2v8.8L107,87.2v43l88.7-6.2V70.7z"/>
</svg>
