<svg width="510" height="175" viewBox="0 0 510 175" fill="none" xmlns="http://www.w3.org/2000/svg">
<path d="M194.706 57.7381V45.8772H254.43V57.7381H231.376V127.945H217.998V57.7381H194.706Z" fill="black"/>
<path d="M291.012 117.163L294.357 116.803L294.596 126.508C285.518 128.345 277.475 129.263 270.467 129.263C261.628 129.263 255.258 126.827 251.356 121.955C247.533 117.083 245.622 109.295 245.622 98.5925C245.622 77.3466 254.262 66.7237 271.542 66.7237C288.265 66.7237 296.626 75.869 296.626 94.1596L295.79 103.505H258.761C258.841 108.457 259.916 112.091 261.987 114.407C264.057 116.723 267.919 117.881 273.573 117.881C279.227 117.881 285.04 117.642 291.012 117.163ZM283.846 93.4407C283.846 87.5302 282.89 83.4169 280.979 81.1006C279.147 78.7044 276.002 77.5064 271.542 77.5064C267.083 77.5064 263.818 78.7444 261.748 81.2204C259.757 83.6964 258.722 87.7699 258.642 93.4407H283.846Z" fill="black"/>
<path d="M303.174 127.945V68.0416H316.074V75.23C322.843 70.8371 329.611 68.0016 336.38 66.7237V79.7827C329.532 81.1405 323.679 82.8977 318.821 85.0542L316.193 86.1325V127.945H303.174Z" fill="black"/>
<path d="M340.361 127.945V68.0416H353.262V75.23C360.03 70.8371 366.799 68.0016 373.568 66.7237V79.7827C366.719 81.1405 360.866 82.8977 356.009 85.0542L353.381 86.1325V127.945H340.361Z" fill="black"/>
<path d="M421.744 86.4919V113.808C421.824 115.565 422.262 116.883 423.058 117.762C423.934 118.56 425.248 119.08 427 119.319L426.642 129.263C419.793 129.263 414.498 127.786 410.755 124.83C404.385 127.786 397.974 129.263 391.524 129.263C379.659 129.263 373.726 122.913 373.726 110.214C373.726 104.144 375.319 99.7506 378.504 97.035C381.769 94.3193 386.746 92.682 393.435 92.1229L408.844 90.805V86.4919C408.844 83.2971 408.127 81.0606 406.694 79.7827C405.34 78.5048 403.31 77.8658 400.602 77.8658C395.506 77.8658 389.135 78.1853 381.49 78.8242L377.668 79.0639L377.19 69.8387C385.87 67.762 393.833 66.7237 401.08 66.7237C408.406 66.7237 413.662 68.3211 416.847 71.516C420.112 74.631 421.744 79.623 421.744 86.4919ZM394.988 101.348C389.493 101.827 386.746 104.822 386.746 110.334C386.746 115.845 389.175 118.6 394.032 118.6C398.014 118.6 402.234 117.961 406.694 116.683L408.844 115.965V100.03L394.988 101.348Z" fill="black"/>
<path fill-rule="evenodd" clip-rule="evenodd" d="M158.571 39C168.965 39 177.637 46.3668 179.643 56.16C179.929 57.559 180.08 59.0076 180.08 60.4912V115.509C180.08 127.378 170.45 137 158.571 137H103.509C101.157 137 98.8935 136.623 96.7753 135.926C88.1943 133.102 82 125.028 82 115.509V60.4912C82 48.622 91.6298 39 103.509 39H158.571ZM149.847 45.8772H158.571C165.699 45.8772 171.636 50.9723 172.934 57.7165C168.794 58.1851 164.062 57.7508 159.066 55.6112C154.638 53.7151 151.701 50.2021 149.847 45.8772ZM129.425 45.8772H142.498C144.67 52.4101 148.831 58.7105 156.355 61.9324C162.39 64.5168 168.122 65.1163 173.197 64.6127V71.6397C166.306 73.8193 159.44 74.7014 153.945 73.0946C151.216 72.2965 148.085 70.1776 144.715 66.8442C141.392 63.5565 138.075 59.3279 134.943 54.7058C132.997 51.8334 131.144 48.8413 129.425 45.8772ZM121.52 45.8772H112.413C112.828 53.6593 110.993 63.1649 104.166 72.7945C99.6434 79.1744 94.2951 82.6835 88.8828 84.2506V97.9605C92.1441 95.9815 95.9834 93.2789 100.478 89.6297C111.099 81.0072 119.465 77.5765 125.808 76.949C132.115 76.3251 136.597 78.5108 138.572 81.2735C140.646 84.1735 141.818 88.0601 142.259 92.1592C142.705 96.3078 142.433 100.935 141.386 105.527C139.304 114.657 134.019 124.16 124.498 129.282C123.98 129.561 123.457 129.841 122.929 130.123H133.628C137.812 124.816 141.16 119.542 142.361 115.41C143.716 110.745 144.273 105.799 144.793 101.176L144.793 101.175L144.793 101.174C144.98 99.513 145.162 97.8935 145.375 96.3438C145.744 93.658 146.253 90.8125 147.347 88.7608C147.926 87.6749 148.845 86.4661 150.325 85.7683C151.884 85.0336 153.505 85.1238 154.927 85.5975C158.914 86.9253 164.214 87.2004 173.197 84.9521V78.8176C166.27 80.768 158.716 81.6555 152.012 79.6949C147.686 78.4298 143.58 75.3981 139.873 71.7315C136.12 68.0194 132.522 63.3989 129.244 58.5613C126.44 54.4233 123.83 50.0653 121.52 45.8772ZM173.197 92.025C164.639 93.9823 158.485 93.9007 153.28 92.2917C152.895 93.1915 152.536 94.7873 152.194 97.279C152.024 98.5166 151.866 99.9239 151.695 101.445L151.695 101.447C151.163 106.189 150.507 112.04 148.971 117.327C147.793 121.38 145.247 125.831 142.22 130.123H149.144C150.421 126.949 151.598 123.927 152.522 121.386C153.514 118.656 154.136 116.693 154.336 115.694C154.716 113.796 155.44 111.755 157.137 110.308C158.902 108.802 161.07 108.479 163.101 108.582C165.102 108.684 167.447 109.222 170.093 109.98C171.055 110.256 172.089 110.57 173.197 110.92V92.025ZM172.973 118.07C171.177 117.487 169.596 116.992 168.195 116.591C165.639 115.858 163.924 115.51 162.752 115.45C161.995 115.412 161.689 115.505 161.601 115.544C161.551 115.602 161.307 115.935 161.085 117.042C160.769 118.622 159.968 121.047 158.991 123.734C158.289 125.664 157.456 127.839 156.554 130.123H158.571C165.774 130.123 171.761 124.92 172.973 118.07ZM108.079 130.123C112.586 127.8 117.135 125.433 121.235 123.227C128.491 119.323 132.885 111.848 134.675 103.999C135.564 100.103 135.775 96.2408 135.415 92.8944C135.05 89.4985 134.125 86.8839 132.972 85.2708C132.796 85.0247 131.041 83.3421 126.486 83.7927C121.967 84.2397 114.846 86.8265 104.819 94.9672C98.5417 100.063 93.2887 103.555 88.8828 105.863V113.619C89.9689 112.626 91.1954 111.796 92.3288 111.088C93.4835 110.367 94.7417 109.658 95.9781 108.965L96.2846 108.794C97.4396 108.147 98.586 107.505 99.7244 106.823C102.215 105.333 104.454 103.776 106.176 101.965C109.157 98.8294 113.46 95.0865 117.505 92.5317C119.501 91.2713 121.656 90.1564 123.689 89.6445C125.598 89.1641 128.557 88.9687 130.619 91.3239C132.581 93.5652 133.394 96.9268 131.965 101.29C130.608 105.433 127.198 110.666 120.608 117.47C113.767 124.533 106.926 128.072 101.158 129.199C100.508 129.326 99.8677 129.423 99.2406 129.491C100.591 129.902 102.024 130.123 103.509 130.123H108.079ZM88.8828 76.974C92.2175 75.5921 95.5396 73.0654 98.5496 68.8194C104.493 60.4354 105.929 52.3058 105.52 45.8772H103.509C95.431 45.8772 88.8828 52.4201 88.8828 60.4912V76.974ZM161.594 115.547C161.578 115.555 161.572 115.561 161.572 115.561C161.572 115.561 161.576 115.559 161.582 115.556L161.587 115.553L161.594 115.547ZM121.182 98.3449C117.717 100.534 113.846 103.883 111.166 106.702C108.802 109.189 105.933 111.124 103.261 112.723C102.033 113.458 100.802 114.148 99.6607 114.787L99.3446 114.964C98.0941 115.664 96.9727 116.298 95.9764 116.92C93.8282 118.262 92.9301 119.164 92.6487 119.741C92.568 119.907 92.5584 120.001 92.5832 120.146C92.6186 120.352 92.7668 120.827 93.3562 121.612L93.4135 121.689L93.4665 121.768C93.4698 121.773 93.5473 121.879 93.7936 122.03C94.048 122.185 94.4418 122.361 95.0011 122.499C96.1251 122.775 97.7614 122.856 99.8366 122.45C103.963 121.643 109.597 118.949 115.662 112.688C121.977 106.168 124.545 101.832 125.424 99.1502C125.947 97.5534 125.84 96.6886 125.673 96.2467C125.589 96.2622 125.489 96.2836 125.371 96.3133C124.377 96.5635 122.942 97.2334 121.182 98.3449ZM126.043 96.2144C126.041 96.2162 126.021 96.2164 125.986 96.2096C126.027 96.2092 126.044 96.2126 126.043 96.2144Z" fill="black"/>
</svg>
