<?xml version="1.0" encoding="utf-8"?>
<!-- Generator: Adobe Illustrator 25.0.1, SVG Export Plug-In . SVG Version: 6.00 Build 0)  -->
<svg version="1.1" id="Layer_1" xmlns="http://www.w3.org/2000/svg" xmlns:xlink="http://www.w3.org/1999/xlink" x="0px" y="0px"
	 viewBox="0 0 510 175" style="enable-background:new 0 0 510 175;" xml:space="preserve">
<style type="text/css">
	.st0{fill-rule:evenodd;clip-rule:evenodd;}
	.st1{fill-rule:evenodd;clip-rule:evenodd;fill:#FFFFFF;filter:url(#Adobe_OpacityMaskFilter);}
	.st2{mask:url(#mask0_1159_61_1_);}
</style>
<path d="M231.1,58.5c1.3,1.3,3.2,2,5.9,2c2.6,0,4.6-0.7,5.8-2c1.2-1.4,1.8-3.1,1.8-5.2c0-2.2-0.6-4-1.8-5.3c-1.2-1.3-3.1-2-5.8-2
	c-2.6,0-4.6,0.7-5.9,2c-1.2,1.3-1.8,3.1-1.8,5.3C229.3,55.4,229.9,57.1,231.1,58.5z"/>
<path d="M169.9,66.8l16.4,52.4h21.5L222,66.8h-12.9l-10.7,41.4h-2.3l-12.4-41.4H169.9z"/>
<path d="M275.1,120.8c-7.2,0-12.9-1.5-17-4.5c-4-3.1-6.2-7.3-6.4-12.7h12.1c0.2,1.8,1.2,3.4,3,4.9c1.8,1.5,4.6,2.2,8.5,2.2
	c3.2,0,5.8-0.6,7.6-1.7c1.9-1.2,2.9-2.7,2.9-4.7c0-1.7-0.7-3.1-2.2-4.1c-1.4-1-3.9-1.7-7.3-2l-4.6-0.5c-5.8-0.6-10.3-2.3-13.5-5
	c-3.1-2.7-4.7-6.3-4.7-10.8c0-3.6,0.9-6.6,2.7-9.1c1.8-2.4,4.3-4.3,7.4-5.5c3.2-1.3,6.9-1.9,11-1.9c6.4,0,11.6,1.4,15.6,4.2
	c4,2.8,6.1,7,6.3,12.4h-12.1c-0.1-1.8-1-3.3-2.7-4.6c-1.7-1.3-4.1-1.9-7.2-1.9c-2.8,0-5,0.5-6.6,1.6c-1.5,1.1-2.3,2.5-2.3,4.2
	c0,1.7,0.6,3,1.8,3.9c1.3,0.9,3.3,1.5,6.2,1.8l4.6,0.5c6.2,0.6,11,2.3,14.5,5.1c3.5,2.8,5.3,6.5,5.3,11.2c0,3.5-1,6.5-2.9,9.1
	c-1.9,2.5-4.5,4.5-7.9,5.9C283.8,120.1,279.8,120.8,275.1,120.8z"/>
<path d="M305.8,58.5c1.3,1.3,3.2,2,5.9,2c2.6,0,4.6-0.7,5.8-2c1.2-1.4,1.8-3.1,1.8-5.2c0-2.2-0.6-4-1.8-5.3c-1.2-1.3-3.2-2-5.8-2
	c-2.6,0-4.6,0.7-5.9,2c-1.2,1.3-1.8,3.1-1.8,5.3C303.9,55.4,304.5,57.1,305.8,58.5z"/>
<path class="st0" d="M355.9,121c-4.6,0-8.7-0.7-12.2-2.2c-3.5-1.5-6.5-3.5-9-6c-2.4-2.6-4.3-5.5-5.6-8.7c-1.2-3.2-1.8-6.6-1.8-10v-2
	c0-3.6,0.6-7,1.9-10.2c1.4-3.3,3.2-6.2,5.7-8.7c2.5-2.6,5.5-4.6,9.1-6c3.5-1.5,7.5-2.2,12-2.2s8.4,0.7,12,2.2c3.5,1.4,6.5,3.4,9,6
	c2.5,2.5,4.4,5.4,5.7,8.7c1.3,3.2,1.9,6.6,1.9,10.2v2c0,3.5-0.6,6.8-1.9,10c-1.2,3.2-3.1,6.1-5.5,8.7c-2.4,2.5-5.4,4.5-9,6
	C364.5,120.3,360.5,121,355.9,121z M355.9,109.5c3.3,0,6-0.7,8.3-2.1c2.2-1.5,4-3.4,5.1-5.9c1.2-2.5,1.7-5.3,1.7-8.5
	c0-3.2-0.6-6-1.8-8.5c-1.2-2.5-2.9-4.5-5.2-5.9c-2.2-1.5-4.9-2.2-8.1-2.2c-3.1,0-5.9,0.7-8.2,2.2c-2.2,1.4-4,3.4-5.2,5.9
	c-1.2,2.4-1.8,5.3-1.8,8.5c0,3.1,0.6,6,1.7,8.5c1.2,2.4,3,4.4,5.2,5.9C349.9,108.8,352.6,109.5,355.9,109.5z"/>
<path d="M403.1,76c-0.5,1.2-0.8,2.4-1.2,3.7V66.8h-10.6v52.4h13.4V88.4c0-3.4,1-6.1,3-8.1c2.1-2.1,4.7-3.1,8-3.1c3.2,0,5.7,1,7.5,3
	c1.9,2,2.8,4.6,2.8,7.8v31.1h13.4v-30c0-8-1.6-13.9-4.8-17.9c-3.2-4-7.9-6.1-14.2-6.1h-0.6c-4.2,0-7.7,0.9-10.5,2.7
	C406.6,69.7,404.6,72.4,403.1,76z"/>
<path d="M232.1,76.9v42.3h13.4V66.8h-20.7v10H232.1z"/>
<path d="M306.7,76.9v42.3h13.4V66.8h-20.7v10H306.7z"/>
<defs>
	<filter id="Adobe_OpacityMaskFilter" filterUnits="userSpaceOnUse" x="66.9" y="42.9" width="90.1" height="90.1">
		<feColorMatrix  type="matrix" values="1 0 0 0 0  0 1 0 0 0  0 0 1 0 0  0 0 0 1 0"/>
	</filter>
</defs>
<mask maskUnits="userSpaceOnUse" x="66.9" y="42.9" width="90.1" height="90.1" id="mask0_1159_61_1_">
	<path class="st1" d="M112,129.9c23.2,0,42-18.8,42-42c0-23.2-18.8-42-42-42c-23.2,0-42,18.8-42,42C70,111.1,88.8,129.9,112,129.9z
		 M142.9,83.6c-3.9,4.6-9.4,7.4-15.5,7.4c-11.9,0-21.5-10.8-21.5-24.1c0-3.3,0.6-6.5,1.7-9.4c-14.9,2.3-26.3,15.1-26.3,30.6
		c0,4.5,1,8.8,2.7,12.7c1.8-1.6,4.3-2.7,7-2.7c5.4,0,9.7,3.9,9.7,8.7c0,3.2-2,6-4.9,7.5c4.8,3,10.4,4.7,16.4,4.7
		c17.1,0,31-13.9,31-31C143.2,86.6,143.1,85.1,142.9,83.6z"/>
</mask>
<g class="st2">
	<path class="st0" d="M112,129.9c23.2,0,42-18.8,42-42c0-23.2-18.8-42-42-42c-23.2,0-42,18.8-42,42C70,111.1,88.8,129.9,112,129.9z
		 M142.9,83.6c-3.9,4.6-9.4,7.4-15.5,7.4c-11.9,0-21.5-10.8-21.5-24.1c0-3.3,0.6-6.5,1.7-9.4c-14.9,2.3-26.3,15.1-26.3,30.6
		c0,4.5,1,8.8,2.7,12.7c1.8-1.6,4.3-2.7,7-2.7c5.4,0,9.7,3.9,9.7,8.7c0,3.2-2,6-4.9,7.5c4.8,3,10.4,4.7,16.4,4.7
		c17.1,0,31-13.9,31-31C143.2,86.6,143.1,85.1,142.9,83.6z"/>
	<path d="M142.9,83.6l3-0.4l-1-6.7l-4.4,5.1L142.9,83.6z M107.5,57.6l2.9,1.1l1.9-4.9l-5.2,0.8L107.5,57.6z M84,100.9l-2.8,1.3
		l1.8,3.9l3.1-2.9L84,100.9z M95.8,114.5l-1.4-2.7l-4.8,2.5l4.6,2.9L95.8,114.5z M150.9,88c0,21.5-17.4,38.9-38.9,38.9v6.1
		c24.9,0,45-20.2,45-45H150.9z M112,49.1c21.5,0,38.9,17.4,38.9,38.9h6.1c0-24.9-20.2-45-45-45V49.1z M73.1,88
		c0-21.5,17.4-38.9,38.9-38.9v-6.1c-24.9,0-45,20.2-45,45H73.1z M112,126.9c-21.5,0-38.9-17.4-38.9-38.9h-6.1c0,24.9,20.2,45,45,45
		V126.9z M127.3,94.1c7.1,0,13.4-3.3,17.9-8.5l-4.7-4c-3.4,4-8.1,6.4-13.2,6.4V94.1z M102.8,67c0,14.6,10.7,27.1,24.6,27.1V88
		c-9.9,0-18.4-9.1-18.4-21H102.8z M104.7,56.5c-1.2,3.2-1.9,6.8-1.9,10.5h6.1c0-3,0.5-5.8,1.5-8.3L104.7,56.5z M84.3,88.2
		c0-14,10.3-25.5,23.7-27.6l-0.9-6.1C90.7,57,78.2,71.1,78.2,88.2H84.3z M86.8,99.6c-1.6-3.5-2.4-7.4-2.4-11.4h-6.1
		c0,5,1.1,9.7,3,14L86.8,99.6z M91,95.1c-3.5,0-6.8,1.3-9.1,3.5l4.2,4.5c1.2-1.1,2.9-1.8,4.9-1.8V95.1z M103.8,106.9
		c0-6.8-6.1-11.8-12.8-11.8v6.1c4,0,6.7,2.8,6.7,5.6H103.8z M97.2,117.2c3.8-1.9,6.5-5.7,6.5-10.3h-6.1c0,1.9-1.2,3.8-3.2,4.8
		L97.2,117.2z M112.2,116.1c-5.4,0-10.5-1.5-14.8-4.2l-3.3,5.2c5.2,3.3,11.4,5.2,18,5.2V116.1z M140.1,88.2
		c0,15.4-12.5,27.9-27.9,27.9v6.1c18.8,0,34-15.2,34-34H140.1z M139.8,84.1c0.2,1.3,0.3,2.7,0.3,4.1h6.1c0-1.7-0.1-3.4-0.4-5
		L139.8,84.1z"/>
</g>
</svg>
