<?xml version="1.0" encoding="utf-8"?>
<!-- Generator: Adobe Illustrator 25.0.1, SVG Export Plug-In . SVG Version: 6.00 Build 0)  -->
<svg version="1.1" id="Layer_1" xmlns="http://www.w3.org/2000/svg" xmlns:xlink="http://www.w3.org/1999/xlink" x="0px" y="0px"
	 viewBox="0 0 510 175" style="enable-background:new 0 0 510 175;" xml:space="preserve">
<style type="text/css">
	.st0{fill-rule:evenodd;clip-rule:evenodd;}
</style>
<path d="M279.5,114.4V53.2h11.1v61.2H279.5z"/>
<path d="M185.6,54.9l23.4,59.5h9.1l23.7-59.5h-12.3l-15.9,41.8l-15.7-41.8H185.6z"/>
<path class="st0" d="M243.6,112.5c3.3,1.9,7.1,2.8,11.2,2.8c4.1,0,7.8-0.9,11.1-2.8c3.3-1.9,6-4.5,7.9-7.7c1.9-3.3,2.9-6.9,2.9-10.9
	c0-4-1-7.6-2.9-10.7c-1.9-3.2-4.5-5.8-7.9-7.6c-3.3-1.9-7-2.9-11.2-2.9c-4.1,0-7.8,1-11.1,2.9c-3.3,1.9-6,4.4-7.9,7.6
	c-1.9,3.2-2.9,6.7-2.9,10.7c0,4,1,7.6,2.9,10.9C237.7,108,240.3,110.6,243.6,112.5z M260.2,103.6c-1.6,0.9-3.4,1.4-5.5,1.4
	c-2,0-3.8-0.5-5.4-1.4c-1.6-1-2.8-2.3-3.7-3.9c-0.9-1.7-1.4-3.6-1.4-5.8c0-2.1,0.5-4,1.4-5.7c0.9-1.6,2.1-2.9,3.7-3.8
	c1.6-1,3.4-1.4,5.4-1.4c2.1,0,3.9,0.5,5.5,1.4c1.6,0.9,2.8,2.2,3.7,3.8c0.9,1.6,1.4,3.5,1.4,5.7c0,2.1-0.5,4.1-1.4,5.8
	C263.1,101.3,261.8,102.6,260.2,103.6z"/>
<path d="M304,113c2.8,1.5,6,2.3,9.6,2.3c3.6,0,6.8-0.7,9.6-2.2c2.8-1.5,5-3.6,6.5-6.3c1.6-2.7,2.4-5.9,2.4-9.5V73.5H321V97
	c0,2.5-0.6,4.5-1.9,5.9c-1.3,1.4-3.1,2.1-5.4,2.1c-1.5,0-2.8-0.3-4-0.9c-1.1-0.6-2-1.5-2.5-2.7c-0.6-1.2-0.8-2.7-0.8-4.4V73.5h-11.2
	v23.7c0,3.6,0.8,6.7,2.4,9.4C299,109.3,301.2,111.5,304,113z"/>
<path d="M336.7,114.4V73.5h11.1v3.5c1-1,2.1-1.8,3.4-2.4c2.4-1.3,5-1.9,8-1.9c2.8,0,5.4,0.6,7.7,1.9c1.9,1,3.5,2.5,4.8,4.3
	c1.4-1.7,3-3.1,5-4.2c2.5-1.4,5.2-2,8.3-2c3,0,5.8,0.6,8.2,1.9c2.4,1.2,4.3,3,5.8,5.4c1.4,2.4,2.1,5.2,2.1,8.5v25.9H390V90.3
	c0-2.4-0.8-4.2-2.3-5.5c-1.5-1.4-3.3-2-5.5-2c-1.4,0-2.7,0.3-4,0.9c-1.2,0.6-2.1,1.4-2.8,2.5c-0.7,1.1-1,2.5-1,4.1v24.1h-11.1V90.3
	c0-2.4-0.8-4.2-2.3-5.5c-1.5-1.4-3.3-2-5.5-2c-1.5,0-2.8,0.3-4,0.9c-1.2,0.6-2.1,1.4-2.8,2.5c-0.7,1.1-1,2.5-1,4.1v24.1H336.7z"/>
<path class="st0" d="M414,112.6c3.3,1.8,7.1,2.7,11.4,2.7c3.3,0,6.4-0.6,9.2-1.8c2.9-1.2,5.3-2.9,7.3-5.2l-6.5-6.5
	c-1.2,1.4-2.7,2.5-4.4,3.2c-1.7,0.7-3.6,1-5.7,1c-2.3,0-4.3-0.5-6.1-1.4c-1.7-1-3.1-2.4-4.1-4.2c-0.4-0.7-0.6-1.5-0.9-2.4l29.9-0.1
	c0.2-1,0.4-1.8,0.4-2.5c0.1-0.8,0.2-1.6,0.2-2.3c0-3.9-0.9-7.4-2.6-10.4c-1.7-3.1-4.1-5.5-7.1-7.3c-3-1.8-6.5-2.7-10.4-2.7
	c-4,0-7.6,1-10.9,2.9c-3.3,1.9-5.9,4.4-7.8,7.6c-1.9,3.2-2.8,6.8-2.8,10.8c0,4.1,1,7.8,2.9,11C408,108.2,410.6,110.7,414,112.6z
	 M414.3,89.6c0.2-0.7,0.5-1.4,0.8-2.1c0.9-1.8,2.2-3.2,3.8-4.1c1.6-1,3.6-1.5,5.8-1.5c2.1,0,3.8,0.5,5.2,1.4
	c1.5,0.8,2.6,2.1,3.3,3.7c0.4,0.8,0.7,1.7,0.9,2.6L414.3,89.6z"/>
<path class="st0" d="M117.5,139c28.4,0,51.5-23.1,51.5-51.5c0-28.4-23.1-51.5-51.5-51.5C89.1,36,66,59.1,66,87.5
	C66,115.9,89.1,139,117.5,139z M138.8,56c0.6,0.5,1,1.3,1,2.1l0,10.3l0,0.7l0,0.1v34.6c0,6-4.9,10.9-10.9,10.9
	c-6,0-10.9-4.9-10.9-10.9c0-6,4.9-10.9,10.9-10.9c2,0,3.8,0.5,5.4,1.5V72.3l-27.2,4.5v32.4c0,6-4.9,10.9-10.9,10.9
	c-6,0-10.9-4.9-10.9-10.9s4.9-10.9,10.9-10.9c2,0,3.8,0.5,5.4,1.5l0-25.3l0-0.7l0-0.1V63.5c0-1.3,1-2.5,2.3-2.7l32.7-5.4
	C137.4,55.2,138.2,55.5,138.8,56z"/>
</svg>
