<svg width="500" height="500" viewBox="0 0 500 500" fill="none" xmlns="http://www.w3.org/2000/svg">
<g clip-path="url(#clip0)">
<path d="M490.235 214.174C487.538 214.174 485.096 215.267 483.329 217.034L398.9 301.463C394.259 298.991 388.968 297.586 383.352 297.586C377.753 297.586 372.477 298.984 367.845 301.441L325.363 258.96C327.87 254.292 329.296 248.962 329.296 243.304C329.296 224.995 314.401 210.1 296.092 210.1C277.784 210.1 262.889 224.995 262.889 243.304C262.889 248.766 264.223 253.918 266.569 258.468L242.131 282.906C237.514 280.47 232.261 279.082 226.687 279.082C221.048 279.082 215.735 280.499 211.079 282.99L146.641 218.553C148.83 214.127 150.066 209.15 150.066 203.888C150.066 185.579 135.172 170.685 116.863 170.685C98.5542 170.685 83.6596 185.579 83.6596 203.888C83.6596 209.835 85.2396 215.418 87.9896 220.252L19.5312 288.708V9.76583C19.5312 4.37208 15.1583 0 9.76583 0C4.37333 0 0 4.37208 0 9.76583V312.279C0 312.282 0 312.286 0 312.289V490.234C0 495.627 4.37292 500 9.76583 500H490.235C495.627 500 500 495.627 500 490.234V223.94C500 218.546 495.627 214.174 490.235 214.174ZM397.023 330.789C397.023 338.328 390.89 344.461 383.351 344.461C375.812 344.461 369.679 338.328 369.679 330.789C369.679 323.25 375.812 317.117 383.351 317.117C390.89 317.117 397.023 323.25 397.023 330.789ZM126.628 235.622C128.947 234.907 131.153 233.938 133.227 232.76L197.308 296.841C194.87 301.458 193.484 306.711 193.484 312.285C193.484 327.196 203.365 339.841 216.921 344.02V480.469H126.628V235.622ZM236.452 344.02C250.009 339.841 259.89 327.196 259.89 312.285C259.89 306.645 258.472 301.333 255.982 296.677L280.207 272.452C282.14 273.51 284.187 274.38 286.327 275.039V480.469H236.453V344.02H236.452ZM296.092 229.632C303.631 229.632 309.764 235.765 309.764 243.304C309.764 250.843 303.631 256.976 296.092 256.976C288.552 256.976 282.42 250.843 282.42 243.304C282.42 235.765 288.554 229.632 296.092 229.632ZM240.358 312.284C240.358 319.823 234.225 325.956 226.686 325.956C219.147 325.956 213.014 319.823 213.014 312.284C213.014 304.745 219.147 298.612 226.686 298.612C234.225 298.612 240.358 304.746 240.358 312.284ZM116.862 190.214C124.402 190.214 130.534 196.347 130.534 203.886C130.534 211.425 124.401 217.558 116.862 217.558C109.324 217.558 103.19 211.425 103.19 203.886C103.19 196.347 109.323 190.214 116.862 190.214ZM19.5312 316.33L102.196 233.665C103.765 234.44 105.4 235.1 107.097 235.622V480.469H19.5312V316.33ZM305.857 480.469V275.039C307.818 274.435 309.699 273.648 311.487 272.708L354.024 315.243C351.554 319.885 350.148 325.175 350.148 330.789C350.148 345.7 360.029 358.345 373.585 362.524V417.48C373.585 422.873 377.958 427.246 383.351 427.246C388.744 427.246 393.117 422.873 393.117 417.48V362.525C406.674 358.345 416.555 345.7 416.555 330.789C416.555 325.192 415.156 319.917 412.7 315.285L480.47 247.516V480.469H305.857V480.469Z" fill="#141516"/>
<path d="M383.35 443.36C380.781 443.36 378.262 444.403 376.445 446.221C374.63 448.037 373.584 450.557 373.584 453.125C373.584 455.693 374.629 458.213 376.445 460.028C378.262 461.845 380.781 462.891 383.35 462.891C385.918 462.891 388.437 461.846 390.254 460.028C392.08 458.213 393.115 455.693 393.115 453.125C393.115 450.557 392.08 448.037 390.254 446.221C388.437 444.403 385.918 443.36 383.35 443.36Z" fill="#141516"/>
<path d="M76.2276 104.711L118.3 62.6387L221.369 165.708C225.184 169.521 231.365 169.521 235.181 165.708L294.452 106.435L378.064 190.047C379.971 191.954 382.47 192.907 384.969 192.907C387.468 192.907 389.967 191.954 391.875 190.047L472.644 109.277C473.269 112.917 475.933 116.047 479.736 117.066C480.582 117.293 481.432 117.401 482.269 117.401C486.581 117.401 490.527 114.524 491.696 110.161L499.667 80.4117C500.571 77.0417 499.607 73.4458 497.14 70.9792C494.674 68.5125 491.08 67.5467 487.708 68.4517L457.958 76.4233C452.748 77.8187 449.657 83.1742 451.053 88.3842C452.07 92.1812 455.194 94.8421 458.827 95.4721L384.969 169.332L301.358 85.7192C297.543 81.9067 291.362 81.9067 287.546 85.7192L228.275 144.992L125.205 41.9229C121.39 38.1083 115.209 38.1083 111.393 41.9229L62.4159 90.9004C58.6026 94.7137 58.6026 100.897 62.4159 104.711C66.2305 108.526 72.4122 108.526 76.2276 104.711Z" fill="#141516"/>
<path d="M46.5234 130.371C49.0917 130.371 51.6113 129.336 53.4276 127.51C55.243 125.694 56.2888 123.174 56.2888 120.606C56.2888 118.038 55.2438 115.518 53.4276 113.702C51.6113 111.885 49.0917 110.84 46.5234 110.84C43.9551 110.84 41.4355 111.885 39.6092 113.702C37.7938 115.518 36.7576 118.038 36.7576 120.606C36.7576 123.174 37.7938 125.694 39.6092 127.51C41.4355 129.336 43.9551 130.371 46.5234 130.371Z" fill="#141516"/>
</g>
<defs>
<clipPath id="clip0">
<rect width="500" height="500" fill="white"/>
</clipPath>
</defs>
</svg>
