<svg width="587" height="500" viewBox="0 0 587 500" fill="none" xmlns="http://www.w3.org/2000/svg">
<g clip-path="url(#clip0)">
<path d="M586.271 245.994C586.271 230.424 583.24 215.24 577.262 200.865L559.013 156.977C548.305 131.225 532.624 108.425 512.404 89.2095C500.436 77.835 487.493 67.2955 473.937 57.8864C468.604 54.185 461.277 55.5055 457.575 60.8364C453.872 66.1677 455.193 73.4923 460.526 77.1932C473.099 85.9209 485.103 95.6964 496.204 106.246C508.682 118.105 519.192 131.518 527.618 146.282C506.347 152.835 490.387 171.609 488.004 194.374L453.207 214.264C447.57 217.485 445.613 224.665 448.835 230.301C451.006 234.096 454.971 236.222 459.052 236.222C461.031 236.222 463.036 235.723 464.876 234.67L505.288 211.573C508.95 209.48 511.21 205.587 511.21 201.37V200.296C511.21 184.196 522.801 170.761 538.075 167.87L555.547 209.889C560.329 221.39 562.755 233.537 562.755 245.995C562.755 297.861 520.546 340.058 468.662 340.058H460.252C447.095 340.058 436.39 329.358 436.39 316.203C436.39 303.049 447.093 292.349 460.252 292.349C466.745 292.349 472.009 287.087 472.009 280.595C472.009 274.104 466.745 268.842 460.252 268.842C434.13 268.842 412.877 290.089 412.877 316.203C412.877 324.898 415.243 333.046 419.35 340.058H208.879C191.005 340.058 174.914 332.297 163.788 319.974C163.794 319.822 163.812 319.674 163.812 319.521C163.812 305.993 174.821 294.987 188.354 294.987H225.515C232.009 294.987 237.272 289.725 237.272 283.234C237.272 276.742 232.008 271.48 225.515 271.48H188.354C172.314 271.48 158.095 279.385 149.361 291.494C148.56 287.563 148.136 283.497 148.136 279.334C148.136 245.85 175.387 218.609 208.88 218.609H232.002C238.495 218.609 243.759 213.346 243.759 206.855C243.759 200.364 238.495 195.102 232.002 195.102H208.88C167.916 195.102 133.702 224.484 126.178 263.271H108.622C61.6931 263.271 23.5148 225.104 23.5148 178.19C23.5148 142.885 44.7712 111.777 77.6661 98.9364L89.3351 94.3809C94.4894 99.6782 97.3284 106.645 97.3284 114.049C97.3284 121.588 94.3916 128.675 89.0587 134.005C84.4677 138.595 84.4668 146.037 89.0587 150.627C91.3548 152.923 94.3635 154.07 97.3721 154.07C100.381 154.07 103.39 152.921 105.686 150.627C110.17 146.144 113.719 140.975 116.26 135.367H178.622C189.744 135.367 198.793 144.413 198.793 155.532C198.793 162.023 204.057 167.285 210.55 167.285C217.043 167.285 222.307 162.023 222.307 155.532C222.307 131.45 202.711 111.86 178.622 111.86H120.788C120.343 101.108 116.622 90.9459 110.11 82.515C145.992 55.9777 187.637 37.7764 231.277 29.1791C219.9 45.7191 213.759 65.2732 213.759 85.7791C213.759 92.2705 219.023 97.5323 225.516 97.5323C232.009 97.5323 237.272 92.27 237.272 85.7791C237.272 65.2955 245.252 46.0382 259.74 31.5532L266.951 24.3445C274.287 23.7968 281.647 23.5041 289.018 23.5041C321.703 23.5041 353.979 28.7895 384.949 39.2123C391.105 41.2845 397.771 37.9745 399.842 31.8232C401.914 25.6718 398.604 19.0055 392.451 16.9345C359.059 5.69773 324.259 0 289.017 0C218.351 0 148.496 23.6032 92.3187 66.4614L88.2366 69.575L69.1117 77.0409C48.6619 85.0236 31.309 98.8205 18.9253 116.943C6.54516 135.063 0 156.242 0 178.188C0 238.063 48.727 286.776 108.621 286.776H124.97C128.754 329.746 164.931 363.563 208.879 363.563H265.778L336.896 493.877C338.955 497.652 342.914 500 347.216 500H392.48C395.957 500 399.256 498.461 401.49 495.797C403.724 493.133 404.663 489.617 404.056 486.195L393.975 429.381H435.007C479.499 429.381 516.138 395.195 520.067 351.723C559.227 332.619 586.271 292.406 586.271 245.994ZM354.195 476.495L292.563 363.563H326.446V375.895C326.446 386.907 329.781 397.5 336.089 406.527C344.146 418.054 356.354 425.831 369.924 428.423L378.454 476.495H354.195ZM435.007 405.875H379.949C370.16 405.875 360.97 401.085 355.364 393.065C351.829 388.005 349.96 382.069 349.96 375.895V363.564H468.665C477.579 363.564 486.264 362.561 494.614 360.674C487.306 386.716 463.361 405.875 435.007 405.875Z" fill="#141516"/>
<path d="M426.436 56.73C428.18 57.6441 430.047 58.0768 431.888 58.0768C436.119 58.0768 440.207 55.7872 442.309 51.7818C445.324 46.0331 443.11 38.9282 437.359 35.9136L437.118 35.7891C431.334 32.8509 424.237 35.1486 421.296 40.9345C418.355 46.7204 420.648 53.7891 426.436 56.73Z" fill="#141516"/>
<path d="M350.63 68.6218C351.16 62.8945 347.465 57.6259 341.9 56.1691C336.333 54.7127 330.531 57.4973 328.187 62.75L266.006 202.052C264.382 205.688 264.712 209.898 266.88 213.239C269.048 216.579 272.76 218.595 276.742 218.595H330.807L316.172 280.53C314.87 286.037 317.678 291.688 322.852 293.978C324.391 294.66 326.01 294.985 327.607 294.985C331.384 294.985 335.052 293.163 337.304 289.886L424.277 163.317C426.748 159.72 427.023 155.05 424.989 151.189C422.956 147.327 418.951 144.909 414.586 144.909H343.574L350.63 68.6218ZM392.249 168.416L353.501 224.805L357.107 209.545C357.933 206.048 357.114 202.367 354.885 199.55C352.655 196.732 349.259 195.09 345.665 195.09H294.863L320.668 137.28L318.976 155.582C318.672 158.873 319.767 162.14 321.995 164.583C324.223 167.025 327.376 168.417 330.682 168.417H392.249L392.249 168.416Z" fill="#141516"/>
<path d="M275.829 274.916C273.642 277.102 272.384 280.135 272.384 283.237C272.384 286.328 273.642 289.36 275.829 291.546C278.016 293.733 281.037 294.99 284.141 294.99C287.233 294.99 290.266 293.732 292.453 291.546C294.64 289.36 295.897 286.328 295.897 283.237C295.897 280.145 294.639 277.114 292.453 274.916C290.266 272.73 287.233 271.484 284.141 271.484C281.038 271.484 278.016 272.73 275.829 274.916Z" fill="#141516"/>
</g>
<defs>
<clipPath id="clip0">
<rect width="586.271" height="500" fill="white"/>
</clipPath>
</defs>
</svg>
