<svg width="499" height="500" viewBox="0 0 499 500" fill="none" xmlns="http://www.w3.org/2000/svg">
<g clip-path="url(#clip0)">
<path d="M451.707 183.071H420.312V138.672C420.312 133.28 415.956 128.906 410.582 128.906H330.801V9.76591C330.801 4.37273 326.445 0 321.072 0H9.72973C4.35608 0 0 4.37273 0 9.76591V416.015C0 421.408 4.35608 425.781 9.72973 425.781H129.257C132.569 442.619 145.564 455.996 162.157 459.821V490.234C162.157 495.627 166.513 500 171.886 500H376.854C382.227 500 386.583 495.627 386.583 490.234V459.821C405.876 455.374 420.313 438.012 420.313 417.318V397.915H451.708C477.316 397.915 498.148 377.004 498.148 351.302V229.685C498.147 203.982 477.313 183.071 451.707 183.071ZM420.312 241.665H439.771V339.321H420.312V241.665ZM293.829 166.016C275.588 166.016 260.749 180.91 260.749 199.219V232.097C260.749 241.79 252.892 249.675 243.236 249.675C233.58 249.675 225.723 241.789 225.723 232.097V148.437H354.151V211.914C354.151 219.453 348.041 225.586 340.53 225.586C333.018 225.586 326.909 219.454 326.909 211.914V199.219C326.909 180.91 312.07 166.016 293.829 166.016ZM19.459 19.5314H311.342V128.906H138.158C132.784 128.906 128.428 133.279 128.428 138.672V406.25H19.459V19.5314ZM367.124 480.468H181.617V460.937H367.125V480.468H367.124ZM400.853 417.317C400.853 430.6 390.087 441.406 376.854 441.406H171.887C158.653 441.406 147.887 430.6 147.887 417.317V148.437H206.264V232.096C206.264 252.559 222.85 269.206 243.236 269.206C263.623 269.206 280.208 252.559 280.208 232.096V199.219C280.208 191.68 286.318 185.546 293.829 185.546C301.34 185.546 307.451 191.679 307.451 199.219V211.914C307.451 230.223 322.29 245.117 340.531 245.117C358.772 245.117 373.611 230.223 373.611 211.914V148.437H400.854V192.837V231.899V349.086V388.149V417.316H400.853V417.317ZM478.688 351.3C478.688 366.234 466.584 378.383 451.706 378.383H420.311V358.851H449.5C454.873 358.851 459.229 354.479 459.229 349.085V231.898C459.229 226.506 454.873 222.132 449.5 222.132H420.311V202.601H451.706C466.585 202.601 478.688 214.749 478.688 229.683V351.3Z" fill="#141516"/>
<path d="M193.615 58.5936H277.613C282.986 58.5936 287.342 54.2209 287.342 48.8277C287.342 43.4345 282.986 39.0623 277.613 39.0623H193.615C188.242 39.0623 183.886 43.435 183.886 48.8282C183.886 54.2214 188.242 58.5936 193.615 58.5936Z" fill="#141516"/>
<path d="M154.708 58.5936C160.082 58.5936 164.438 54.2209 164.438 48.8277C164.438 43.4345 160.082 39.0623 154.708 39.0623H154.698C149.325 39.0623 144.974 43.435 144.974 48.8282C144.974 54.2214 149.334 58.5936 154.708 58.5936Z" fill="#141516"/>
<path d="M154.698 105.469H277.613C282.986 105.469 287.342 101.096 287.342 95.7027C287.342 90.31 282.986 85.9368 277.613 85.9368H154.698C149.324 85.9368 144.968 90.3096 144.968 95.7027C144.968 101.096 149.325 105.469 154.698 105.469Z" fill="#141516"/>
<path d="M103.132 39.0623H56.431C51.0574 39.0623 46.7013 43.435 46.7013 48.8282V95.7032C46.7013 101.095 51.0574 105.469 56.431 105.469H103.132C108.506 105.469 112.862 101.096 112.862 95.7032V48.8282C112.862 43.4354 108.506 39.0623 103.132 39.0623ZM93.4026 85.9373H66.1603V58.5936H93.4026V85.9373Z" fill="#141516"/>
<path d="M192.643 279.819C187.27 279.819 182.913 284.192 182.913 289.585V354.98C182.913 360.373 187.27 364.746 192.643 364.746C198.017 364.746 202.373 360.374 202.373 354.98V289.585C202.372 284.192 198.016 279.819 192.643 279.819Z" fill="#141516"/>
<path d="M192.643 382.031C190.085 382.031 187.574 383.066 185.765 384.892C183.955 386.709 182.914 389.227 182.914 391.796C182.914 394.365 183.955 396.874 185.765 398.7C187.574 400.516 190.085 401.562 192.643 401.562C195.202 401.562 197.712 400.517 199.522 398.7C201.331 396.884 202.372 394.365 202.372 391.796C202.372 389.217 201.331 386.709 199.522 384.892C197.712 383.066 195.202 382.031 192.643 382.031Z" fill="#141516"/>
</g>
<defs>
<clipPath id="clip0">
<rect width="498.148" height="500" fill="white"/>
</clipPath>
</defs>
</svg>
