<svg width="500" height="500" viewBox="0 0 500 500" fill="none" xmlns="http://www.w3.org/2000/svg">
<g clip-path="url(#clip0)">
<path d="M97.9787 308.593C95.4105 308.593 92.891 309.638 91.0746 311.455C89.2583 313.271 88.2133 315.79 88.2133 318.359C88.2133 320.927 89.2569 323.446 91.0746 325.263C92.8919 327.079 95.4105 328.124 97.9787 328.124C100.547 328.124 103.066 327.079 104.882 325.263C106.698 323.446 107.744 320.927 107.744 318.359C107.744 315.79 106.699 313.271 104.882 311.455C103.066 309.638 100.547 308.593 97.9787 308.593Z" fill="#141516"/>
<path d="M490.234 308.593V9.76591C490.234 4.37227 485.861 0 480.468 0H19.5318C14.1391 0 9.76592 4.37227 9.76592 9.76591V308.594C4.37319 308.593 0 312.965 0 318.359V373.046C0 378.44 4.37273 382.812 9.76592 382.812H158.328L102.11 485.547C100.454 488.572 100.517 492.247 102.276 495.214C104.034 498.182 107.227 500 110.677 500H162.435C166.003 500 169.288 498.053 171.001 494.922L216.797 411.236V490.235C216.797 495.629 221.17 500.001 226.563 500.001H273.438C278.831 500.001 283.204 495.629 283.204 490.235V411.235L329 494.921C330.713 498.052 333.998 500 337.566 500H389.324C392.773 500 395.966 498.18 397.725 495.213C399.484 492.246 399.547 488.571 397.891 485.546L341.672 382.811H490.235C495.627 382.811 500 378.439 500 373.045V318.358C500 312.965 495.627 308.593 490.234 308.593ZM156.647 480.468H127.154L180.593 382.812H210.087L156.647 480.468ZM263.672 480.468H236.328V382.811H263.672V480.468ZM372.847 480.468H343.353L289.914 382.811H319.407L372.847 480.468ZM480.469 363.28H19.5318V328.124H54.1996C59.5919 328.124 63.9655 323.752 63.9655 318.358C63.9655 312.965 59.5928 308.592 54.1996 308.592H29.2968V19.5314H470.702V308.593H136.719C131.326 308.593 126.953 312.965 126.953 318.359C126.953 323.753 131.326 328.125 136.719 328.125H480.468V363.28H480.469Z" fill="#141516"/>
<path d="M146.485 222.655C146.485 202.194 129.837 185.546 109.375 185.546C88.9128 185.546 72.2655 202.193 72.2655 222.655C72.2655 243.118 88.9128 259.765 109.375 259.765C129.837 259.765 146.485 243.118 146.485 222.655ZM109.375 240.234C99.6828 240.234 91.7969 232.348 91.7969 222.656C91.7969 212.964 99.6828 205.078 109.375 205.078C119.067 205.078 126.953 212.964 126.953 222.656C126.953 232.348 119.068 240.234 109.375 240.234Z" fill="#141516"/>
<path d="M421.875 212.89H226.562C221.17 212.89 216.797 217.263 216.797 222.656C216.797 228.05 221.169 232.422 226.562 232.422H421.874C427.267 232.422 431.64 228.05 431.64 222.656C431.64 217.262 427.267 212.89 421.875 212.89Z" fill="#141516"/>
<path d="M184.571 232.421C187.139 232.421 189.658 231.376 191.474 229.56C193.29 227.744 194.336 225.224 194.336 222.656C194.336 220.088 193.291 217.568 191.474 215.752C189.658 213.935 187.139 212.89 184.571 212.89C182.002 212.89 179.483 213.935 177.667 215.752C175.85 217.568 174.805 220.088 174.805 222.656C174.805 225.224 175.849 227.744 177.667 229.56C179.484 231.376 182.002 232.421 184.571 232.421Z" fill="#141516"/>
<path d="M109.375 150.39C129.837 150.39 146.485 133.743 146.485 113.281C146.485 92.8187 129.837 76.1714 109.375 76.1714C88.9128 76.1714 72.2655 92.8187 72.2655 113.281C72.2655 133.743 88.9133 150.39 109.375 150.39ZM109.375 95.7032C119.067 95.7032 126.953 103.589 126.953 113.281C126.953 122.974 119.067 130.86 109.375 130.86C99.6828 130.86 91.7969 122.974 91.7969 113.281C91.7969 103.589 99.6828 95.7032 109.375 95.7032Z" fill="#141516"/>
<path d="M184.571 123.047H421.875C427.268 123.047 431.641 118.675 431.641 113.281C431.641 107.887 427.268 103.515 421.875 103.515H184.571C179.178 103.515 174.805 107.887 174.805 113.281C174.805 118.675 179.178 123.047 184.571 123.047Z" fill="#141516"/>
</g>
<defs>
<clipPath id="clip0">
<rect width="500" height="500" fill="white"/>
</clipPath>
</defs>
</svg>
