<svg width="500" height="500" viewBox="0 0 500 500" fill="none" xmlns="http://www.w3.org/2000/svg">
<path d="M499.13 113.81L467.88 44.8C466.299 41.307 462.82 39.0625 458.985 39.0625C455.15 39.0625 451.67 41.3065 450.089 44.8L418.839 113.81C418.266 115.076 417.969 116.449 417.969 117.839V232.097C417.969 237.49 422.341 241.862 427.735 241.862C433.128 241.862 437.5 237.49 437.5 232.096V127.604H480.469V427.734H437.5V311.848C437.5 306.455 433.128 302.083 427.735 302.083C422.341 302.083 417.969 306.455 417.969 311.848V458.984C417.969 481.6 436.369 499.999 458.985 499.999C481.601 499.999 500 481.6 500 458.984V117.839C500 116.449 499.703 115.075 499.13 113.81ZM458.985 72.502L475.092 108.073H442.877L458.985 72.502ZM458.985 480.469C447.138 480.469 437.5 470.831 437.5 458.984V447.265H480.469V458.984C480.469 470.831 470.831 480.469 458.985 480.469Z" fill="#141516"/>
<path d="M427.735 283.203C430.303 283.203 432.823 282.158 434.639 280.341C436.456 278.525 437.501 276.006 437.501 273.437C437.501 270.869 436.456 268.349 434.639 266.533C432.823 264.716 430.303 263.671 427.735 263.671C425.166 263.671 422.646 264.716 420.83 266.533C419.013 268.349 417.969 270.869 417.969 273.437C417.969 276.006 419.013 278.525 420.83 280.341C422.646 282.158 425.166 283.203 427.735 283.203Z" fill="#141516"/>
<path d="M141.114 402.344C138.545 402.344 136.026 403.389 134.209 405.205C132.393 407.022 131.348 409.541 131.348 412.11C131.348 414.678 132.393 417.198 134.209 419.014C136.026 420.831 138.545 421.876 141.114 421.876C143.682 421.876 146.202 420.831 148.018 419.014C149.844 417.198 150.88 414.678 150.88 412.11C150.88 409.541 149.845 407.022 148.018 405.205C146.201 403.388 143.682 402.344 141.114 402.344Z" fill="#141516"/>
<path d="M237.791 402.344H182.328C176.935 402.344 172.562 406.716 172.562 412.109C172.562 417.503 176.935 421.875 182.328 421.875H237.791C243.185 421.875 247.557 417.503 247.557 412.109C247.557 406.716 243.185 402.344 237.791 402.344Z" fill="#141516"/>
<path d="M281.71 347.656H97.1964C91.8029 347.656 87.4309 352.028 87.4309 357.422C87.4309 362.815 91.8029 367.188 97.1964 367.188H281.709C287.102 367.188 291.474 362.815 291.474 357.422C291.474 352.028 287.103 347.656 281.71 347.656Z" fill="#141516"/>
<path d="M129.252 225.969C140.806 236.309 148.302 250.224 150.357 265.15L150.515 266.295V304.687C150.515 310.081 154.887 314.453 160.281 314.453H218.625C224.019 314.453 228.391 310.081 228.391 304.687V266.294L228.458 265.801C230.557 250.567 238.197 236.32 249.97 225.685C268.9 208.585 279.757 184.156 279.757 158.664C279.757 134.537 270.359 111.856 253.297 94.7995C236.24 77.7475 213.568 68.36 189.452 68.36C189.442 68.36 189.43 68.36 189.42 68.36C139.644 68.3775 99.1489 108.888 99.1489 158.665C99.1484 184.317 110.121 208.848 129.252 225.969ZM208.86 294.922H170.047V275.39H208.86V294.922ZM189.453 174.804C184.068 174.804 179.687 170.423 179.687 165.039C179.687 159.654 184.068 155.273 189.453 155.273C194.837 155.273 199.218 159.654 199.218 165.039C199.218 170.423 194.838 174.804 189.453 174.804ZM189.427 87.8905C189.437 87.8905 189.443 87.8905 189.452 87.8905C208.352 87.8905 226.122 95.249 239.488 108.611C252.86 121.979 260.226 139.754 260.226 158.663C260.226 178.642 251.716 197.787 236.878 211.192C223.576 223.208 214.358 238.861 210.447 255.86H199.219V192.657C210.585 188.625 218.751 177.771 218.751 165.04C218.751 148.885 205.608 135.743 189.454 135.743C173.299 135.743 160.157 148.885 160.157 165.04C160.157 177.77 168.322 188.626 179.688 192.657V255.859H168.512C164.726 238.895 155.565 223.305 142.276 211.413C127.281 197.994 118.68 178.768 118.68 158.663C118.679 119.653 150.416 87.9045 189.427 87.8905Z" fill="#141516"/>
<path d="M330.078 0H9.7655C4.372 0 0 4.372 0 9.7655V490.234C0 495.628 4.372 500 9.7655 500H330.078C357.002 500 378.906 478.095 378.906 451.172V48.828C378.907 21.9045 357.002 0 330.078 0ZM359.375 451.172C359.375 467.326 346.233 480.469 330.078 480.469H19.5315V19.5315H330.079C346.233 19.5315 359.376 32.674 359.376 48.8285V451.172H359.375Z" fill="#141516"/>
</svg>
