<svg width="459" height="500" viewBox="0 0 459 500" fill="none" xmlns="http://www.w3.org/2000/svg">
<g clip-path="url(#clip0)">
<path d="M241.852 100.227L237.65 92.2812C235.957 89.0799 232.629 87.077 229.005 87.077C225.38 87.077 222.053 89.0799 220.359 92.2812L216.157 100.227C194.201 141.742 165.152 178.492 129.814 209.457C126.904 212.007 125.774 216.033 126.935 219.724L160.561 326.671V362.304H149.317C143.916 362.304 139.539 366.677 139.539 372.07C139.539 377.463 143.916 381.836 149.317 381.836H160.561V490.234C160.561 495.627 164.939 500 170.339 500H287.674C293.074 500 297.452 495.627 297.452 490.234V381.836H308.696C314.097 381.836 318.474 377.463 318.474 372.07C318.474 366.677 314.097 362.304 308.696 362.304H297.45V326.669L331.077 219.722C332.237 216.033 331.108 212.006 328.197 209.456C292.858 178.491 263.807 141.742 241.852 100.227ZM229.127 219.075C234.519 219.075 238.905 223.456 238.905 228.841C238.905 234.226 234.519 238.606 229.127 238.606C223.736 238.606 219.349 234.225 219.349 228.84C219.349 223.455 223.736 219.075 229.127 219.075ZM277.893 480.468H250.515V453.613C250.515 448.22 246.137 443.847 240.737 443.847C235.336 443.847 230.958 448.22 230.958 453.613V480.468H180.114V381.836H277.893V480.468ZM180.114 362.304V334.939H277.893V362.304H180.114ZM280.492 315.408H177.514L147.482 219.889C175.401 194.642 199.432 165.867 219.226 134.063V201.267C207.909 205.332 199.794 216.156 199.794 228.841C199.794 244.995 212.953 258.138 229.127 258.138C245.302 258.138 258.461 244.995 258.461 228.841C258.461 216.064 250.226 205.178 238.781 201.182V134.062C258.575 165.867 282.606 194.642 310.525 219.889L280.492 315.408Z" fill="#141516"/>
<path d="M397.654 70.2908H448.477C453.877 70.2908 458.255 65.9179 458.255 60.5249V9.76582C458.255 4.37333 453.877 0 448.477 0H397.654C392.253 0 387.876 4.37291 387.876 9.76582V25.38H262.923C258.676 10.7383 245.138 0 229.127 0C213.117 0 199.579 10.7383 195.331 25.38H70.3789V9.76582C70.3789 4.37291 66.0013 0 60.6012 0H9.77806C4.37756 0 0 4.37291 0 9.76582V60.5254C0 65.9179 4.37756 70.2908 9.77806 70.2908H60.6012C66.0017 70.2908 70.3793 65.9179 70.3793 60.5249V44.9108H142.061C83.1978 72.8324 39.6521 128.19 28.3296 194.371C12.199 197.568 0.000417188 211.806 0.000417188 228.84C0.000417188 248.22 15.7868 263.986 35.1898 263.986C54.5929 263.986 70.3793 248.219 70.3793 228.84C70.3793 213.933 61.0334 201.173 47.8903 196.074C61.451 120.822 121.155 61.3529 196.319 47.8287C201.424 60.9558 214.201 70.2908 229.128 70.2908C244.054 70.2908 256.83 60.9566 261.936 47.83C336.943 61.3366 396.843 121.238 410.365 196.075C397.222 201.174 387.877 213.934 387.877 228.841C387.877 248.221 403.664 263.987 423.067 263.987C442.471 263.987 458.256 248.22 458.256 228.841C458.256 211.807 446.056 197.568 429.926 194.372C422.878 153.025 403.499 115.461 373.668 85.4649C356.812 68.5166 337.511 54.8887 316.456 44.9133H387.876V60.5266C387.876 65.9179 392.254 70.2908 397.654 70.2908ZM50.8231 50.7595H19.5557V19.5312H50.8231V50.7595ZM35.1894 244.455C26.5691 244.455 19.5557 237.45 19.5557 228.841C19.5557 220.231 26.5695 213.227 35.1894 213.227C43.8094 213.227 50.8231 220.231 50.8231 228.841C50.8231 237.45 43.8098 244.455 35.1894 244.455ZM438.699 228.841C438.699 237.45 431.685 244.455 423.065 244.455C414.445 244.455 407.432 237.45 407.432 228.841C407.432 220.231 414.444 213.227 423.065 213.227C431.687 213.227 438.699 220.231 438.699 228.841ZM229.127 50.7595C220.507 50.7595 213.494 43.7558 213.494 35.1462C213.494 26.5366 220.507 19.5312 229.127 19.5312C237.747 19.5312 244.761 26.5362 244.761 35.1454C244.761 43.7545 237.748 50.7595 229.127 50.7595ZM407.432 19.5312H438.699V50.7595H407.432V19.5312V19.5312Z" fill="#141516"/>
<path d="M240.737 426.718C243.308 426.718 245.831 425.673 247.649 423.857C249.468 422.041 250.514 419.521 250.514 416.953C250.514 414.385 249.468 411.865 247.649 410.049C245.831 408.233 243.308 407.188 240.737 407.188C238.165 407.188 235.642 408.233 233.824 410.049C232.005 411.865 230.959 414.385 230.959 416.953C230.959 419.521 232.005 422.041 233.824 423.857C235.642 425.673 238.165 426.718 240.737 426.718Z" fill="#141516"/>
</g>
<defs>
<clipPath id="clip0">
<rect width="458.256" height="500" fill="white"/>
</clipPath>
</defs>
</svg>
