<?xml version="1.0" encoding="UTF-8"?>
<svg width="10px" height="16px" viewBox="0 0 10 16" version="1.1" xmlns="http://www.w3.org/2000/svg" xmlns:xlink="http://www.w3.org/1999/xlink">
    <title>mango</title>
    <defs>
        <polygon id="path-1" points="0.325000525 0.323541325 9.81895655 0.323541325 9.81895655 14.1210407 0.325000525 14.1210407"></polygon>
        <path d="M2.53250127,0.967914642 C3.29583352,-0.180625062 5.3529172,0.533751453 5.65187399,0.645418651 C5.78354332,0.698124783 5.91208519,0.757081581 6.03770865,0.821043179 C7.15708142,1.39541757 8.03124887,2.40750074 8.65604245,3.58624844 C8.85854271,3.9675007 9.03395817,4.36645962 9.18374804,4.77291508 C9.84916455,6.5829161 9.99479015,8.55812672 9.60708243,9.89562429 C9.07458111,11.7304146 8.1968766,12.7849981 7.28625048,13.3812477 C5.80750065,14.3491666 4.24229109,14.1118759 3.9275007,14.0506236 C3.89021004,14.0433276 3.87062604,14.038549 3.87062604,14.038549 C2.49333327,13.7943847 1.5152085,12.5252178 1.5152085,12.5252178 C-1.51020796,8.94334271 2.18624848,4.28396789 2.18624848,4.28396789 C2.18624848,4.28396789 2.48833274,3.9179263 2.72958287,3.8539647 C2.72958287,3.8539647 2.79145806,3.78271564 2.69729273,3.76605004 C2.6033322,3.74919671 2.40312314,3.99104843 2.36562341,3.39042552 C2.35499941,3.22792525 2.32354128,3.04459086 2.26187514,2.84167673 C2.24083194,2.78417486 2.22374821,2.71917647 2.21104208,2.64834127 C2.15249915,2.32417701 2.18291621,1.87709009 2.31395834,1.46209276 C2.32625061,1.42689276 2.33854287,1.3902165 2.35145807,1.35188477 C2.40020901,1.21646504 2.46083407,1.08730024 2.53250127,0.967923176 L2.53250127,0.967914642 Z" id="path-3"></path>
        <polygon id="path-5" points="0.343957325 0.334165325 9.79020776 0.334165325 9.79020776 14.0389586 0.343957325 14.0389586"></polygon>
        <polygon id="path-7" points="0.168750929 0.286459726 8.96104084 0.286459726 8.96104084 13.0641661 0.168750929 13.0641661"></polygon>
        <path d="M2.21333328,0.882918378 C2.87020793,-0.105416531 4.56291829,0.39624959 5.02062494,0.554999453 C5.05500147,0.566647453 5.08229107,0.576674119 5.10166601,0.584183452 C6.31124891,1.07085224 7.24062275,2.09314128 7.88395927,3.30751565 C8.90312511,5.230434 9.20458217,7.63355714 8.76458218,9.15064297 C8.44958272,10.2387667 8.0029182,11.0302248 7.50104301,11.6035581 C7.21916569,11.9262674 6.91937689,12.1800189 6.6160425,12.3785597 C5.08458227,13.382101 3.45250125,12.9877245 3.45250125,12.9877245 C3.37083298,12.9733458 3.29083298,12.9548285 3.21208312,12.9333501 C2.06458448,12.6158504 1.27124903,11.5858514 1.27124903,11.5858514 C0.725832515,10.9404328 0.416251723,10.2571005 0.271458127,9.57501843 C-0.327500792,6.75272516 1.89271035,3.95397537 1.89271035,3.95397537 C1.89271035,3.95397537 2.17229221,3.61501858 2.39583141,3.55564364 C2.39583141,3.55564364 2.45312421,3.48959991 2.36583247,3.47439351 C2.27874981,3.45877751 2.09375141,3.68272631 2.05895675,3.12626766 C2.04854182,2.97626873 2.01979302,2.80647673 1.96250022,2.6181418 C1.85333329,2.32209914 1.86270715,1.80918182 2.01062395,1.34043303 C2.02187515,1.3077077 2.03354022,1.27439357 2.04520955,1.23834877 C2.09083301,1.11376637 2.14687568,0.993352508 2.21333328,0.882935445 L2.21333328,0.882918378 Z" id="path-9"></path>
        <polygon id="path-11" points="0.186248529 0.295833593 8.93479231 0.295833593 8.93479231 12.9877074 0.186248529 12.9877074"></polygon>
        <linearGradient x1="-4.62814231e-06%" y1="49.9999822%" x2="99.9999952%" y2="49.9999822%" id="linearGradient-13">
            <stop stop-color="#EF67FF" offset="0%"></stop>
            <stop stop-color="#FFFFFF" stop-opacity="0.13730068" offset="100%"></stop>
        </linearGradient>
        <polygon id="path-14" points="0.177915729 0.378333857 2.28895994 0.378333857 2.28895994 1.30416637 0.177915729 1.30416637"></polygon>
        <path d="M2.28895994,0.53625172 C2.34166607,0.791876247 1.91103995,1.13583357 1.3281237,1.30416637 C0.744998381,1.47270823 0.229998928,1.40166823 0.177915729,1.1460437 C0.125418664,0.890210111 0.555417586,0.546666653 1.13895677,0.378333857 C1.72229116,0.209582928 2.23666768,0.280622926 2.28895994,0.53625172 L2.28895994,0.53625172 Z" id="path-16"></path>
        <polygon id="path-18" points="0.177915729 0.378333857 2.28895994 0.378333857 2.28895994 1.30416637 0.177915729 1.30416637"></polygon>
        <polygon id="path-20" points="0.0679167983 0.202500262 2.93958393 0.202500262 2.93958393 1.3537493 0.0679167983 1.3537493"></polygon>
        <linearGradient x1="-4.62814231e-06%" y1="49.9999822%" x2="99.9999952%" y2="49.9999822%" id="linearGradient-22">
            <stop stop-color="#EF67FF" offset="0%"></stop>
            <stop stop-color="#FFFFFF" stop-opacity="0.13730068" offset="100%"></stop>
        </linearGradient>
        <polygon id="path-23" points="0.391876257 0.231249061 1.4668757 0.231249061 1.4668757 2.74083406 0.391876257 2.74083406"></polygon>
    </defs>
    <g id="favicon" stroke="none" stroke-width="1" fill="none" fill-rule="evenodd">
        <g id="mango" transform="translate(4.836796, 7.868034) scale(1, -1) translate(-4.836796, -7.868034) translate(-0.283204, -0.131966)">
            <g id="g564-Clipped" transform="translate(-0.000000, 0.000000)">
                <g id="g560-Clipped">
                    <mask id="mask-2" fill="white">
                        <use xlink:href="#path-1"></use>
                    </mask>
                    <g id="path34"></g>
                    <g id="g556-Clipped" mask="url(#mask-2)">
                        <mask id="mask-4" fill="white">
                            <use xlink:href="#path-3"></use>
                        </mask>
                        <g id="path38"></g>
                    </g>
                </g>
                <g id="g574-Clipped">
                    <mask id="mask-6" fill="white">
                        <use xlink:href="#path-5"></use>
                    </mask>
                    <g id="path568"></g>
                    <g id="g574" mask="url(#mask-6)" fill="#B69F1D" fill-rule="nonzero">
                        <path d="M3.8708351,14.0389586 C2.4931242,13.7941671 1.51562663,12.5245821 1.51562663,12.5245821 C-1.51020796,8.94333418 2.18666661,4.28416843 2.18666661,4.28416843 C2.18666661,4.28416843 2.4885418,3.91791777 2.72979193,3.85375137 C2.72979193,3.85375137 2.79145806,3.78291617 2.6975018,3.76604151 C2.60354127,3.74897484 2.40312314,3.99062603 2.36583247,3.39166712 C2.36583247,3.39124898 2.36583247,3.39124045 2.36562341,3.39124045 C2.36562341,3.39082658 2.36562341,3.39082658 2.36562341,3.39038712 C2.35499941,3.22788685 2.32375034,3.04517966 2.26166608,2.84163833 C2.14395728,2.5220522 2.15416741,1.96788902 2.31354021,1.46226343 C2.32604154,1.4268501 2.33854287,1.39059623 2.35103994,1.35205543 C2.40020901,1.2172629 2.46062501,1.08726184 2.53250127,0.968093842 C3.29562445,-0.180027729 5.35270813,0.533721587 5.65187399,0.645179717 C9.02562537,2.00372048 10.382084,7.22309529 9.60666856,9.89559442 C8.10812566,15.062677 3.8708351,14.0391378 3.8708351,14.0391378 L3.8708351,14.0389586 Z" id="path572"></path>
                    </g>
                </g>
            </g>
            <g id="g1084-Clipped" transform="translate(0.426667, 0.853333)">
                <g id="g1080-Clipped">
                    <mask id="mask-8" fill="white">
                        <use xlink:href="#path-7"></use>
                    </mask>
                    <g id="path582"></g>
                    <g id="g1076-Clipped" mask="url(#mask-8)">
                        <mask id="mask-10" fill="white">
                            <use xlink:href="#path-9"></use>
                        </mask>
                        <g id="path586"></g>
                    </g>
                </g>
                <g id="g1094-Clipped">
                    <mask id="mask-12" fill="white">
                        <use xlink:href="#path-11"></use>
                    </mask>
                    <g id="path1088"></g>
                    <g id="g1094" mask="url(#mask-12)" fill="#FCCB06" fill-rule="nonzero">
                        <path d="M3.45271031,12.9877074 C2.17687461,12.7612498 1.27124903,11.5856253 1.27124903,11.5856253 C-1.53083303,8.26874859 1.89291515,3.9539583 1.89291515,3.9539583 C1.89291515,3.9539583 2.17229221,3.61500151 2.39562661,3.55562658 C2.39562661,3.55562658 2.45333327,3.49000098 2.36583247,3.47416738 C2.27854074,3.45897805 2.09354235,3.68270924 2.05916582,3.12770979 C2.05916582,3.12729166 2.05916582,3.12729166 2.05916582,3.12728312 C2.05916582,3.12686926 2.05875195,3.12685646 2.05916582,3.12642979 C2.04895995,2.97601273 2.02000208,2.80601166 1.96250022,2.618513 C1.85312422,2.32226128 1.86270715,1.80934395 2.01083302,1.3403861 C2.02208422,1.30766077 2.03354022,1.27434663 2.04520955,1.23892904 C2.09083301,1.11330557 2.14666661,0.993514642 2.21354234,0.882888511 C2.91999993,-0.180445862 4.82520735,0.481220255 5.10208414,0.584136519 C8.22666646,1.84163835 9.4827091,6.6758057 8.76479125,9.1508051 C7.37645635,13.9362215 3.45271031,12.9878866 3.45271031,12.9878866 L3.45271031,12.9877074 Z" id="path1092"></path>
                    </g>
                </g>
            </g>
            <path d="M5.57541533,12.8606247 C5.57831666,12.6968743 5.35041693,12.583957 5.06666654,12.6081234 C4.78208415,12.6322728 4.54958495,12.7843751 4.54645749,12.9474983 C4.54355615,13.1112487 4.77166495,13.2241661 5.05583347,13.1995815 C5.340002,13.1754322 5.57271026,13.0235431 5.57541533,12.8606247 L5.57541533,12.8606247 Z" id="path1098" fill="#696D15" fill-rule="nonzero"></path>
            <path d="M3.27187618,12.4064594 C3.27187618,12.4064594 3.12729166,13.1020839 3.45750178,13.194581 C3.45750178,13.194581 3.53166498,13.393749 3.22333432,13.3112487 C2.91437646,13.2279165 2.79687673,12.7472893 2.8358314,12.5641682 C2.87479033,12.3806248 3.04270926,12.1266685 3.27187618,12.4064594 Z" id="path1100" fill-opacity="0.50998996" fill="#FEE702" fill-rule="nonzero"></path>
            <path d="M3.09166499,1.75333542 C3.09166499,1.75333542 2.62916687,2.33229221 2.85708366,2.571665 C2.85708366,2.571665 2.820625,2.79166713 2.6054186,2.57123834 C2.39062607,2.35082234 2.52979194,1.84852902 2.65187407,1.69707089 C2.77479246,1.54478076 3.03958179,1.3868629 3.09166499,1.75353169 L3.09166499,1.75333542 Z" id="path1102" fill="#FBC707" fill-rule="nonzero"></path>
            <path d="M4.16104096,3.49062391 C2.20395941,4.25208309 1.35999997,5.58874866 1.35416743,5.59749959 C1.78583462,4.78624841 2.18999888,4.27624949 2.18999888,4.27624949 C2.18999888,4.27624949 2.491665,3.9102079 2.73291513,3.8460415 C2.73291513,3.8460415 2.79479033,3.77500151 2.70083407,3.75854071 C2.60666873,3.74126071 2.40687354,3.9833343 2.36958287,3.38395725 C2.36979194,3.38374818 2.36979194,3.38374818 2.36958287,3.38353058 C2.36958287,3.38353058 2.36979194,3.38311245 2.36958287,3.38267725 C2.36270927,3.28226125 2.34687567,3.17309432 2.32187301,3.05726286 C2.32229114,3.05768952 2.32332368,3.05854286 2.32353701,3.05982286 C2.79124473,3.96065697 3.43333111,3.12482126 3.9858303,3.22273699 C4.53812042,3.32065698 4.1610367,3.49086285 4.1610367,3.49086285 L4.16104096,3.49062391 Z" id="path1104" fill-opacity="0.59999001" fill="#CDA317" fill-rule="nonzero"></path>
            <path d="M3.8708351,14.0389586 C2.4931242,13.7941671 1.51562663,12.5245821 1.51562663,12.5245821 C-1.51020796,8.94333418 2.18666661,4.28416843 2.18666661,4.28416843 C2.18666661,4.28416843 2.4885418,3.91791777 2.72979193,3.85375137 C2.72979193,3.85375137 2.79145806,3.78291617 2.6975018,3.76604151 C2.60354127,3.74897484 2.40312314,3.99062603 2.36583247,3.39166712 C2.36583247,3.39124898 2.36583247,3.39124045 2.36562341,3.39124045 C2.36562341,3.39082658 2.36562341,3.39038712 2.36562341,3.38996045 C2.35499941,3.22787832 2.32375034,3.04517112 2.26166608,2.8416298 C2.14395728,2.52204367 2.15416741,1.96788048 2.31354021,1.4622549 C2.32604154,1.42684156 2.33854287,1.3905877 2.35103994,1.3520469 C2.40020901,1.21725437 2.46062501,1.08725331 2.53250127,0.968085309 C3.29562445,-0.180036262 5.35270813,0.533713053 5.65187399,0.645171184 C9.02562537,2.00371195 10.382084,7.22308675 9.60666856,9.89558589 C8.10812566,15.0626684 3.8708351,14.0391292 3.8708351,14.0391292 L3.8708351,14.0389586 Z" id="path28" fill="#FAB20B" fill-rule="nonzero"></path>
            <path d="M1.4564565,12.5027069 C-1.56937383,8.92124991 2.12770981,4.26187509 2.12770981,4.26187509 C2.12770981,4.26187509 2.42937594,3.89604257 2.670417,3.83208524 C2.670417,3.83208524 2.73208313,3.76062284 2.63833167,3.74416631 C2.54416634,3.72748364 2.34416634,3.9691647 2.30708474,3.36958285 C2.30708474,3.36916472 2.30708474,3.36916472 2.30708474,3.36872952 C2.29604261,3.20581112 2.26458448,3.02310392 2.20270928,2.81977166 C2.08458235,2.49977167 2.09520635,1.94581328 2.25479248,1.43997863 C2.26749861,1.4045653 2.27958181,1.36872957 2.29208314,1.3299797 C2.34104314,1.1949781 2.40125007,1.06477224 2.4735402,0.946227176 C3.23666765,-0.202521595 5.29375133,0.511645854 5.59270813,0.623103984 C8.96645951,1.98122662 10.323332,7.20060142 9.54770749,9.87310482 C8.0491646,15.0403964 3.81146017,14.01623 3.81146017,14.01623 C2.43437647,13.772501 1.4564565,12.5027069 1.4564565,12.5027069 Z" id="path1694" fill="url(#linearGradient-13)" fill-rule="nonzero"></path>
            <path d="M2.36583247,3.39166712 C2.40312314,3.99062603 2.60354127,3.74895777 2.6975018,3.76604151 C2.79145806,3.78293751 2.72979193,3.85375137 2.72979193,3.85375137 C2.4885418,3.91791777 2.18666661,4.28416843 2.18666661,4.28416843 C2.18666661,4.28416843 2.40541861,3.97187403 2.36583247,3.39166712 L2.36583247,3.39166712 Z" id="path1106" fill="#BB9515" fill-rule="nonzero"></path>
            <g id="g1722-Clipped" transform="translate(3.840000, 11.946666)">
                <g id="g1718-Clipped">
                    <mask id="mask-15" fill="white">
                        <use xlink:href="#path-14"></use>
                    </mask>
                    <g id="path1704"></g>
                    <mask id="mask-17" fill="white">
                        <use xlink:href="#path-16"></use>
                    </mask>
                    <g id="path1716"></g>
                </g>
                <g id="g1732-Clipped">
                    <mask id="mask-19" fill="white">
                        <use xlink:href="#path-18"></use>
                    </mask>
                    <g id="path1726"></g>
                    <g id="g1732" mask="url(#mask-19)" fill="#605C2D" fill-rule="nonzero">
                        <path d="M2.28895994,0.53625172 C2.34166607,0.791876247 1.91103995,1.13583357 1.3281237,1.30416637 C0.744998381,1.47270823 0.229998928,1.40166823 0.177915729,1.1460437 C0.125418664,0.890210111 0.555417586,0.546666653 1.13895677,0.378333857 C1.72229116,0.209582928 2.23666768,0.280622926 2.28895994,0.53625172 L2.28895994,0.53625172 Z" id="path1730"></path>
                    </g>
                </g>
            </g>
            <g id="g1746-Clipped" transform="translate(4.266667, 10.666666)">
                <mask id="mask-21" fill="white">
                    <use xlink:href="#path-20"></use>
                </mask>
                <g id="path1740"></g>
                <g id="g1746" opacity="0.5" mask="url(#mask-21)" fill="#FEE702" fill-opacity="0.28999" fill-rule="nonzero">
                    <path d="M2.5685418,1.30666663 C1.94791675,0.321873059 0.321873059,0.663125317 0.305625592,0.66666665 C0.188334929,0.692522649 0.0820821313,0.622498118 0.0679167983,0.510835187 C0.0535423987,0.39916799 0.136665597,0.287709859 0.254165327,0.26208426 C0.332083192,0.244377594 2.17729275,-0.14624853 2.93958393,1.06374824 C2.99791779,1.15645864 2.96270926,1.28625063 2.859793,1.3537493 C2.75749966,1.4208341 2.62687567,1.39999997 2.5685418,1.30666663 L2.5685418,1.30666663 Z" id="path1744"></path>
                </g>
            </g>
            <path d="M6.23958171,15.4468732 C6.14499825,15.6010407 5.97208305,15.6774993 5.85291505,15.6170833 C5.84750065,15.61495 5.84333212,15.6104273 5.83833159,15.6073127 L5.83730759,15.6085927 C4.36439029,14.8408828 4.73043188,12.9542183 4.74647455,12.8746322 L5.37585053,12.9325522 C5.36314013,12.9952594 5.08230814,14.4777596 6.18481051,15.052757 L6.18417051,15.0536103 C6.18749851,15.0544636 6.19146225,15.055317 6.19438065,15.0570236 C6.31396251,15.1170215 6.33416944,15.291605 6.23958598,15.4463953 L6.23958171,15.4468732 Z" id="path1750" fill="url(#linearGradient-22)" fill-rule="nonzero"></path>
            <g id="g1762-Clipped" transform="translate(4.693333, 12.800000)">
                <mask id="mask-24" fill="white">
                    <use xlink:href="#path-23"></use>
                </mask>
                <g id="path1756"></g>
                <g id="g1762" mask="url(#mask-24)" fill="#474A0D" fill-rule="nonzero">
                    <path d="M1.4285397,2.611665 C1.38583463,2.68125007 1.32020903,2.7293738 1.26124797,2.74083406 C1.27354023,2.72730873 1.2850005,2.7125034 1.29500157,2.69625167 C1.30937597,2.672273 1.32083197,2.6470826 1.3281237,2.62187513 C1.33895677,2.5841578 1.34104317,2.5466666 1.33312423,2.51437647 C1.3281237,2.4927018 1.3145813,2.46291621 1.28458237,2.44708261 C1.28168103,2.44622927 1.2781269,2.44494927 1.2781269,2.44494927 C0.323332259,1.94578342 0.344998391,0.821196779 0.391876257,0.39098879 L0.400209057,0.322239992 L0.403323723,0.300351992 C0.409365323,0.271381327 0.425617056,0.223893328 0.469367455,0.231185061 C0.532074653,0.242449061 0.52478292,0.310771192 0.52478292,0.310771192 L0.52478292,0.310771192 C0.478118388,0.745352515 0.460616522,1.86306129 1.4116565,2.36014501 C1.4116565,2.36014501 1.4149845,2.36142501 1.41790716,2.36270501 C1.44811516,2.37832101 1.46165756,2.40770554 1.46686716,2.42999461 C1.47436796,2.46186661 1.47207676,2.4993706 1.4614485,2.53728847 C1.4539477,2.56250447 1.44311463,2.58749434 1.42853116,2.61166073 L1.4285397,2.611665 Z" id="path1760"></path>
                </g>
            </g>
            <path d="M4.77562441,13.1893757 L4.77562441,13.1848103 L4.79020788,13.1366823 L4.80229108,13.0916818 C4.79917641,13.0891218 4.77458335,13.0798205 4.75103988,13.0710738 L4.68958282,13.0464978 L4.72291828,12.9823314 L4.78312521,13.0058834 C4.86978974,13.0396327 4.88687348,13.0535933 4.86291615,13.1363026 C4.86167881,13.1406973 4.84854175,13.1823442 4.84645961,13.1894269 C4.78000201,14.4525522 5.442082,15.1448444 5.4487508,15.1519271 L5.39479027,15.202133 C5.38791667,15.1950503 4.70562548,14.4838012 4.77562441,13.1894269 L4.77562441,13.1893757 Z" id="path1766" fill="#9B8E16" fill-rule="nonzero"></path>
        </g>
    </g>
</svg>